<?xml version="1.0" encoding="UTF-8"?>
<svg xmlns="http://www.w3.org/2000/svg" version="1.1" viewBox="0 0 232.44 201.26">
  <defs>
    <style>
      .cls-1 {
        fill: #f67088;
      }
    </style>
  </defs>
  <!-- Generator: Adobe Illustrator 28.7.10, SVG Export Plug-In . SVG Version: 1.2.0 Build 236)  -->
  <g>
    <g id="_レイヤー_1" data-name="レイヤー_1">
      <g>
        <g id="_レイヤー_1-2" data-name="_レイヤー_1">
          <g>
            <path class="cls-1" d="M106.4,66.42c-.23.88-.62,1.68-1.47,2.12l-.54-.39c.78-.4,1.22-1.11,1.41-1.92,0,0,.6.19.6.19ZM105.55,64.96c.27-.27.56-.6.85-.95-.35-.44-.93-.97-1.46-1.34l.41-.36c.14.1.29.2.43.31.25-.33.51-.76.71-1.11h-1.93v-.59h2.57c-.17-.36-.47-.79-.77-1.12l.56-.26c.36.39.74.92.88,1.3-.03.02-.06.03-.14.08h2.53l-.08-.03c.28-.37.62-.96.8-1.35l.83.3c-.04.06-.11.08-.22.08-.18.29-.46.68-.72,1h2.72v.59h-2.27l.26.12c-.03.06-.11.09-.21.08-.23.35-.6.86-.93,1.23.24.21.46.43.63.63.36-.44.69-.89.94-1.27l.68.33s-.11.08-.21.07c-.5.67-1.27,1.56-1.95,2.23.6-.03,1.26-.07,1.93-.11-.17-.23-.35-.44-.54-.63l.5-.23c.49.48.99,1.15,1.17,1.64l-.53.25c-.06-.17-.16-.36-.28-.56-1.22.1-2.45.2-3.25.25-.02.08-.07.12-.13.14l-.26-.68.67-.03c.27-.27.58-.59.88-.94-.36-.44-.97-1-1.51-1.39l.42-.36c.15.1.3.22.45.34.26-.34.53-.76.72-1.11h-3.67l.26.12c-.04.07-.12.09-.21.08-.23.36-.59.86-.9,1.24.22.2.43.4.6.59.33-.43.64-.86.87-1.23l.68.33s-.11.08-.22.08c-.47.65-1.2,1.53-1.85,2.2.51-.03,1.06-.06,1.62-.1-.15-.2-.33-.4-.5-.57l.48-.23c.43.41.87.99,1.04,1.42l-.39.19c.57.3,1.16.71,1.46,1.05l-.47.42c-.35-.4-1.1-.93-1.76-1.25l.45-.38.14.06-.13-.24c-1.16.11-2.33.21-3.09.27,0,.07-.06.11-.13.13l-.24-.68.81-.05h0ZM107.74,67.78c0,.25.08.29.62.29h1.86c.43,0,.5-.12.54-1.03.15.11.43.21.61.25-.08,1.13-.3,1.39-1.09,1.39h-1.96c-1,0-1.25-.18-1.25-.9v-1.53l.86.05c0,.07-.06.12-.19.14,0,0,0,1.34,0,1.34ZM113.1,68.49c-.32-.61-1.09-1.45-1.84-2.02l.54-.32c.75.55,1.54,1.36,1.88,1.98,0,0-.58.36-.58.36Z"/>
            <path class="cls-1" d="M125.69,65.53l.47.3s-.08.08-.14.09c-.48.65-1.14,1.17-1.92,1.58,1.12.39,2.44.63,3.83.74-.14.15-.3.42-.39.6-1.52-.15-2.97-.48-4.17-1-1.23.51-2.68.82-4.16,1.01-.06-.16-.23-.43-.35-.57,1.34-.14,2.67-.38,3.8-.78-.56-.31-1.06-.67-1.46-1.09-.56.38-1.17.71-1.76.96-.1-.12-.31-.32-.45-.43,1.18-.45,2.45-1.25,3.19-2.15-.44-.07-.56-.26-.56-.72v-1.03l.82.06c-.01.07-.06.12-.19.13v.84c0,.2.07.24.51.24h1.57c.33,0,.4-.08.43-.71.13.09.38.16.55.2-.07.83-.25,1.02-.9,1.02h-1.93l.48.19s-.12.08-.22.07c-.14.16-.29.32-.46.48h3.29l.12-.03h0ZM119.85,62.43v1.1h-.64v-1.66h1.82c-.12-.34-.4-.79-.67-1.12l.27-.11-1.1.03c0-.15-.08-.39-.14-.52,2.52-.08,5.62-.28,7.25-.62l.51.51s-.06.03-.1.03c-.03,0-.06,0-.1-.02-.95.18-2.29.33-3.72.44.25.37.47.83.55,1.15l-.6.22c-.07-.36-.33-.9-.6-1.3l.09-.03c-.56.04-1.13.07-1.68.09.29.35.56.78.66,1.1l-.33.15h3.73c.33-.41.74-1.05.97-1.48l.74.33s-.1.08-.21.08c-.2.31-.5.72-.8,1.07h1.79v1.72h-.67v-1.16h-3.97c.51.23,1.1.55,1.41.81l-.36.42c-.33-.28-.98-.66-1.52-.9l.3-.33h-2.88ZM121.14,63.25c-.22.67-.58,1.28-1.32,1.62l-.46-.41c.65-.27,1.05-.81,1.24-1.4,0,0,.54.19.54.19ZM121.66,66.08h0c.43.45,1.02.83,1.71,1.13.68-.3,1.27-.68,1.7-1.13,0,0-3.41,0-3.41,0ZM126.91,64.81c-.33-.44-1.04-1.1-1.64-1.56l.46-.33c.61.43,1.33,1.06,1.67,1.51,0,0-.49.38-.49.38Z"/>
            <path class="cls-1" d="M35.02,94.18h-16.88c-1.36,0-1.85.04-2.4.15l-.35-.81c1.34.11,2.88.13,3.15.13h2.2v-5.94h-1.67c-1.34,0-1.83.04-2.38.13l-.37-.79c1.34.11,2.9.13,3.15.13h1.28c0-3.92-.22-4.55-.53-5.5l3.26.7c.13.02.4.09.4.29,0,.35-.64.59-.9.7-.02.59-.02,3.26-.02,3.81h4.14c0-4.25-.11-4.55-.46-5.54l3.23.73c.15.04.33.15.33.29,0,.35-.55.57-.86.66-.02.62-.02,3.32-.02,3.87h1.25l1.17-1.52c.15-.2.22-.29.35-.29s.24.11.4.24l1.76,1.52c.11.11.2.18.2.33,0,.2-.18.24-.33.24h-4.8v5.94h2.13l1.14-1.58c.13-.18.22-.29.33-.29.13,0,.29.11.42.24l1.8,1.58c.11.09.22.2.22.33,0,.22-.2.24-.33.24h0ZM23.29,97.09c-1.72,1.65-4.11,3.45-7.77,4.49l-.09-.13c1.83-1.28,3.48-2.77,4.86-4.51.79-1.01,1.01-1.61,1.23-2.27l2.6,1.69c.15.11.29.22.29.37,0,.33-.44.33-1.12.35h0ZM27.08,87.71h-4.14v5.94h4.14v-5.94ZM32.18,101.47c-.84,0-1.12-.51-1.83-1.76-1.32-2.35-3.3-3.78-4.11-4.38l.09-.18c1.03.22,7.15,2,7.15,4.99,0,.66-.51,1.32-1.3,1.32h0Z"/>
            <path class="cls-1" d="M44.25,94.69c-.29,1.52-.4,2.71-.4,3.19,0,.26.15,1.45.15,1.69,0,.48-.13,1.06-.86,1.06-1.34,0-2.62-2.11-2.62-6.65,0-1.03.02-2.49.95-6.98.11-.59.2-1.23.2-1.61,0-.7-.15-1.34-1.01-2.27.15-.04.29-.09.53-.09,1.19,0,3.06,1.45,3.06,2.82,0,.35-.11.7-.46,1.39-.95,1.83-1.76,3.39-1.76,5.96,0,.37.09,2.42.53,2.42.2,0,.2-.04.68-1.1,1.25-2.77,1.56-3.3,1.85-3.81l.15.04c-.13.64-.88,3.34-.99,3.92v.02ZM54.29,98.85c-4.44,0-7.06-1.03-7.06-3.74,0-.99.31-1.39.44-1.58.26,1.58.79,3.04,4.71,3.04,1.06,0,1.78-.09,2.68-.22.24-.02.48-.04.57-.04.99,0,1.78.7,1.78,1.36,0,1.19-1.74,1.19-3.12,1.19h0ZM54.86,87.1c-2.71.44-4.05,1.5-4.33,1.74l-.13-.11c.24-.33,1.69-1.8,1.69-2,0-.29-.51-.29-.7-.29-1.01,0-2.55.4-4.05,1.08.97-1.8,3.94-2.95,6.45-2.95,1.14,0,2.75.4,2.75,1.5,0,.66-.64.88-1.67,1.03h0Z"/>
            <path class="cls-1" d="M68.67,95.85c-.09.31-.13.48-.13.62,0,.24.31,1.28.31,1.47,0,.62-.44,1.01-1.06,1.01-1.08,0-4.18-1.5-4.42-7.68-.02-.51-.07-2.73-.11-3.19-.15-1.54-.4-1.98-.99-3.1,1.56.13,3.56,1.08,3.56,2.86,0,.24-.07.44-.11.68-.31,1.34-.55,2.51-.55,3.65,0,2.07.99,3.48,1.41,3.48.29,0,.84-.7,1.14-1.12.75-.99,2.4-3.34,2.82-4l.15.07c-.18.42-2,5.17-2.02,5.26h0ZM78.9,95.39c-.37,0-.48-.11-1.39-1.1-.57-.64-2.35-.95-2.84-1.03v-.15c.18-.02,2.22-.24,2.46-.33.13-.04.35-.2.35-.59s-.31-1.76-1.06-3.01c-.75-1.23-1.76-2.11-2.4-2.62,2.88-.04,6.14,3.39,6.14,6.56,0,1.3-.68,2.29-1.28,2.29l.02-.02Z"/>
            <path class="cls-1" d="M98.11,96.87c-.29,0-.37-.07-1.32-.84-.79-.64-3.59-1.41-5.54-1.41-.86,0-3.17.15-3.17,2.11s2.13,2.22,3.83,2.22c.64,0,1.36-.07,1.78-.11.26-.02,1.36-.22,1.58-.22.84,0,2.02.57,2.02,1.39,0,1.03-1.17,1.12-3.74,1.12-1.01,0-4.2,0-5.72-1.5-.42-.42-1.01-1.21-1.01-2.35,0-3.39,4.31-3.39,5.46-3.39.48,0,2.6.07,4.05.37.04,0,.13.02.18.02.07,0,.18,0,.18-.13,0-.2-1.96-2.64-2.31-3.15-2.53.77-4.16.9-4.91.9-1.76,0-2.77-.99-3.3-2.2.42.24,1.45.79,2.88.79.55,0,2.44-.13,4.4-.95-.64-1.17-.92-1.74-1.1-2.09-.29.11-1.96.59-3.1.59-1.23,0-2.42-.77-2.75-1.76.53.24,1.01.42,1.98.42.59,0,1.56-.07,3.19-.64-1.06-2.24-1.23-2.62-2.46-2.62-.31,0-.53.07-.86.13.15-.48.51-1.65,2.44-1.65,1.45,0,2.05.46,2.09,1.34.04.86.04,1.1.31,2.11.42-.24.84-.48,1.34-.86.48-.35.75-.51,1.14-.51.57,0,1.28.33,1.28.86,0,.79-2.2,1.72-3.21,2.11.18.42.42.97.99,1.96.48-.24,1.01-.53,1.78-.99.9-.57.99-.64,1.32-.64.55,0,1.39.4,1.39.95,0,.35-.22.59-.68.88-.99.62-1.89,1.01-2.79,1.36.68.97,1.41,1.74,2.05,2.33,1.32,1.23,1.5,1.41,1.5,2.27,0,.79-.44,1.74-1.17,1.74l-.02.04Z"/>
            <path class="cls-1" d="M115.12,100.43c-2.46,0-4.62-1.06-4.62-2.93,0-1.58,1.74-2.27,2.88-2.27,1.03,0,2.86.57,3.37,2.95,1.34-.33,2.46-2,2.46-3.7s-1.06-3.17-3.17-3.17c-3.96,0-6.23,3.48-7.42,5.3-.26.42-.66,1.03-1.21,1.03-.68,0-1.01-.75-1.01-1.43,0-.86.48-1.34,1.63-2.46.95-.92,1.45-1.56,5.35-6.42.73-.9,1.61-2,1.87-2.44.07-.09.11-.22.11-.29,0-.09-.04-.18-.2-.18-.42,0-3.37,1.58-3.5,1.69-.35.26-.55.4-.84.4-.81,0-1.98-.84-1.98-2.16,0-.48.18-1.01.44-1.39.46.79.81,1.23,1.67,1.23,1.12,0,3.37-.73,4-.97.2-.07.92-.35,1.08-.35.88,0,2.2,1.08,2.2,1.78,0,.55-.2.68-1.32,1.45-.81.55-4.69,4.4-5.5,5.88,1.32-.68,2.88-1.43,5.06-1.43,4.03,0,5.17,2.77,5.17,4.36,0,2.51-2.31,5.5-6.54,5.5l.02.02ZM112.52,96.34c-.42,0-1.06.29-1.06.95,0,1.28,2.38,1.63,2.86,1.63.37,0,.53-.04.75-.09-.57-2.07-2-2.49-2.55-2.49Z"/>
            <path class="cls-1" d="M145.11,88.62c-.15,0-.31-.02-.66-.04-.4.24-.84.53-2.07,1.08,1.63.55,2.62,1.19,2.62,2.38,0,.84-.73,1.23-1.21,1.23-.64,0-.84-.44-1.23-1.39-.09-.18-.51-1.14-1.58-2.4l.04-.2c.35.09.46.11,1.06.29.2-.51.55-1.56.64-2.02h-13.36c.11,1.85-.59,3.23-1.85,3.23-.62,0-1.23-.48-1.23-1.17,0-.46.31-.84.66-1.14.92-.75,1.25-1.03,1.98-2.31l.2.07c.07.24.11.4.18.79h2.51c-.22-.18-.26-.35-.44-1.1-.02-.07-.18-.73-.55-1.34-1.83.04-2.38-.02-2.95-.09v-.18c4.75-.46,11.02-2,12.76-3.06l2.29,1.39c.15.09.31.24.31.37,0,.18-.24.29-.4.29-.11,0-.62-.04-.73-.04-.44.11-.64.15-1.41.31l1.78.79c.2.09.33.24.33.37,0,.29-.48.42-.77.46-.97.84-2.33,1.72-2.49,1.83h3.08l.7-.73c.13-.15.31-.33.44-.33s.29.15.46.31l1.54,1.41c.22.22.31.33.31.46,0,.48-.66.48-.97.48h.01ZM143.79,101.75c-3.63-.68-5.85-1.8-6.91-2.53-2.46,1.34-5.92,2.53-9.37,2.42v-.2c2.88-.53,5.57-1.72,7.96-3.37-.33-.33-.88-.88-1.72-2.11-1.98,1.76-4.27,3.17-6.8,3.94l-.09-.13c3.76-2.4,5.81-5.74,6.2-6.62-.64-.33-.84-.81-.84-1.5-.02-2.2-.02-2.44-.15-3.3l2.4.57c.22.04.48.18.48.37,0,.26-.4.42-.62.51-.02,1.43-.02,1.56.33,1.63.18.02,1.65.02,1.91.02,2.09,0,2.27,0,2.93-1.91h.18c.04.2.26,1.41.64,1.63.57.33.7.42.7.64,0,.42-.37,1.01-.95,1.23-.79.31-1.56.31-5.06.29l.73.4c.13.07.29.22.29.33,0,.24-.24.29-.81.44-.29.31-.33.37-.46.48h3.76l1.12-.84c.13-.11.31-.24.46-.24.09,0,.31.11.42.2l1.45,1.14c.29.22.35.31.35.42,0,.33-.31.37-1.43.53-.4.46-.9,1.01-2.29,1.98,1.78.66,3.65,1.08,5.57,1.08.7,0,1.19-.04,1.58-.09v.2c-1.32.7-1.83,1.74-1.98,2.4h.02ZM129.14,93.74c-.64,0-1.28-.46-1.28-1.12,0-.55.31-.77,1.08-1.34.29-.22.97-.79,1.58-2.05h.18c.09.33.24.77.24,1.61,0,.73-.11,2.9-1.8,2.9ZM135.32,85.73c-.04-.2-.22-.84-.62-1.41-.62.07-2.31.18-3.01.22,1.5.33,1.96,1.23,1.96,1.58,0,.13-.02.51-.44.88h2.77c-.48-.29-.53-.57-.66-1.28h0ZM134.24,95.5c-.04.07-.07.09-.18.2.35.31,1.03.88,2.49,1.58.31-.26,1.17-.95,1.83-1.78h-4.14ZM137.15,90.73c-.79,0-1.01-.68-1.23-1.3-.2-.62-.55-1.19-.99-1.67l.07-.15c1.28.2,3.23.55,3.23,2.02,0,.73-.64,1.1-1.08,1.1ZM135.56,84.26c1.96.55,2.05,1.47,2.05,1.72,0,.15-.09.75-.57,1.03h1.69c1.03-1.91,1.25-3.01,1.3-3.34-1.58.29-3.39.48-4.47.59Z"/>
            <path class="cls-1" d="M158.93,99.77l-.04-.15c3.23-1.25,6.93-3.85,6.93-8.6,0-3.19-2-5.9-6.27-5.9-.62,0-.79.04-1.06.13,1.96,1.03,1.96,1.98,1.96,2.27,0,.79-1.91,4.86-3.34,7.2-1.69,2.77-2.53,3.5-3.3,3.5-.7,0-.9-.33-1.58-1.39-.29-.44-.31-.46-.86-.92-.68-.57-.99-1.63-.99-2.66,0-4.86,4.18-8.87,9.68-8.87,4.25,0,8.38,2.49,8.38,7.19,0,6.86-7.75,7.97-9.5,8.21h-.01ZM157.74,85.38c-2.53.75-5.48,3.92-5.48,7.57,0,.9.42,3.06,1.34,3.06s1.98-2.24,2.88-4.16c.53-1.08,1.8-3.74,1.8-5.04,0-.75-.37-1.23-.55-1.43h0Z"/>
            <path class="cls-1" d="M174.9,98.12c-.15.48-.26.7-.46.7-.18,0-.24-.11-.31-.24l-1.45-2.71c.95.02,2.62-.31,3.59-.55v-5.44c-1.61,0-2.02.04-2.64.15l-.37-.81c1.23.11,2.07.13,3.01.13v-5.32h-.53c-1.54,0-1.96.09-2.38.15l-.37-.81c1.06.11,2.09.13,3.15.13h2.53l.75-1.01c.13-.2.24-.29.35-.29.13,0,.29.11.4.22l1.17,1.03c.13.11.22.2.22.35,0,.22-.22.22-.35.22h-2.71v5.32h.26l.75-1.08c.11-.15.2-.29.33-.29.15,0,.29.11.4.22l1.17,1.1c.09.09.22.2.22.33,0,.24-.22.24-.33.24h-2.79v4.84c.51-.15,2.95-.86,3.5-1.01l.02.13c-.95.79-5.33,3.43-7.11,4.27l-.02.03ZM189.49,101.47c-1.21,0-2.35-.11-2.55-1.1-.09-.37-.09-2.27-.09-3.41v-2.64h-2.55v.07l2.05,1.12c.11.07.24.2.24.35,0,.22-.07.22-.75.44-2.13,3.15-4.77,4.95-9.24,5.57l-.04-.18c4.14-1.39,6.69-5.37,7.15-6.47-.33.13-.68.18-.88.18-.7,0-.7-.55-.7-.73,0-.62.09-3.32.09-3.89v-3.92c0-2.6-.09-3.72-.31-4.84l2.57.95h4.22l.51-.75c.09-.11.22-.29.33-.29s.26.09.4.18l1.58,1.17c.13.11.22.22.22.33,0,.13,0,.22-.66.79-.02,2.18-.02,2.38.02,6.23,0,.53.11,2.9.11,3.39,0,.99-.95,1.28-1.41,1.28-.26,0-.57-.07-.81-.29,0,.33,0,3.92.07,4.09.09.2.57.2.79.2,1.08,0,1.43,0,2.2-3.34h.15c.04.51.26,2.38.46,2.64.04.07.46.31.53.37.15.13.2.35.2.55,0,1.96-3.04,1.96-3.89,1.96h0ZM188.83,83.49h-4.53v3.01h4.53v-3.01ZM188.83,87.03h-4.53v3.04h4.53v-3.04ZM188.83,90.6h-4.53v3.19h4.53v-3.19Z"/>
            <path class="cls-1" d="M216.59,85.25h-10.78c-.75,1.69-1.63,3.34-2.62,4.93l.59.26c.29.13.33.15.33.33,0,.31-.46.59-.7.7.02.77,0,4.25.02,4.88.02.66.13,3.59.13,3.96s0,1.43-1.41,1.43c-.73,0-.9-.2-.9-1.25,0-.77.09-4.16.09-4.84v-3.08c-1.21,1.34-2.68,2.68-4.49,3.52l-.13-.13c3.83-3.98,5.5-7.55,6.58-10.72h-3.23c-1.36,0-1.83.04-2.38.13l-.37-.79c1.34.11,2.9.13,3.15.13h2.99c.29-.92.75-2.51.7-3.39l3.17,1.17c.22.09.31.22.31.31,0,.29-.48.44-1.1.62-.18.51-.29.75-.51,1.3h7.2l1.01-1.52c.11-.15.18-.29.33-.29.13,0,.26.11.42.24l1.74,1.5c.15.13.22.24.22.35,0,.2-.2.24-.35.24h0ZM216.96,94.71h-5.68c.02.68.09,3.76.09,4.38,0,1.25-.18,2.11-2.97,2.73-.15-1.83-1.61-2.62-2.53-2.88l.02-.18c.37.02,1.96.11,2.29.11.64,0,.9,0,.9-.77,0-.53,0-2.99-.02-3.39h-2.51c-1.34,0-1.83.04-2.38.13l-.35-.79c1.34.11,2.88.13,3.12.13h2.11c-.09-2.02-.18-2.51-.51-3.56l1.91.44c.48-.81.53-.88,1.12-2.27.04-.11.09-.18.11-.24h-3.67c-1.34,0-1.83.04-2.38.15l-.35-.81c1.34.11,2.88.13,3.12.13h3.1l1.06-.92c.09-.09.26-.22.42-.22.11,0,.22.07.42.22l1.76,1.41c.15.13.24.22.24.44,0,.42-.15.44-1.52.59-.2.09-.29.24-1.54.92-.09.04-1.1.59-1.32.7l.68.15c.26.07.33.18.33.31,0,.2-.09.35-.79.73.02.29.02,1.56.02,1.83h2.53l.92-1.47c.09-.15.24-.29.35-.29s.22.07.4.24l1.58,1.45c.13.11.22.22.22.35,0,.2-.18.24-.33.24h.03Z"/>
            <path class="cls-1" d="M60.45,125.61v7.86h-2.58v.96h-.76v-8.82h3.34ZM59.69,126.35h-1.81v2.76h1.81s0-2.76,0-2.76ZM57.87,132.72h1.81v-2.88h-1.81v2.88ZM64.61,128.73h3.19v.65h-7v-.65h3.02v-.84h-2.27v-.62h2.27v-.82h-2.67v-.64h2.67v-1.21l1.03.07c0,.08-.07.14-.24.17v.97h2.83v.64h-2.83v.82h2.34v.62h-2.34s0,.84,0,.84ZM66.86,130.14v4.75c0,.82-.4.88-1.98.88-.04-.2-.14-.49-.24-.7.58,0,1.08,0,1.24,0s.2-.05.2-.19v-1.15h-3.65v2.01h-.77v-5.61h5.2ZM66.08,130.77h-3.65v.88h3.65v-.88ZM62.43,133.13h3.65v-.89h-3.65v.89Z"/>
            <path class="cls-1" d="M70.05,127.36c.97,0,1.86-.08,2.25-.18.02-.72.04-1.12.08-2.21l1.24.1c-.02.13-.13.22-.34.24-.05.53-.1,1.27-.12,1.71l.37.14c-.29.58-.41,1.28-.48,1.71,1.32-1.24,2.78-2.11,3.78-2.11,1.13,0,1.69.79,1.69,2.18,0,.16-.01.31-.02.47-.08,1.05-.2,2.55-.2,3.51,0,.72.08,1.1.59,1.1.36,0,1.08-.36,1.59-.8.02.24.12.73.17.91-.61.44-1.33.78-1.88.78-1.01,0-1.34-.6-1.34-1.85,0-.62.22-3.92.22-3.93,0-1.04-.36-1.51-.95-1.51-.9,0-2.41.97-3.66,2.29,0,1.74,0,3.87.01,5.51h-.84c.01-.7,0-4.11.01-4.88-.42.84-1.24,1.93-2.18,2.89l-.43-.76c1-.94,2.11-2.39,2.64-3.62,0-.35.01-.67.02-1.06-.42.1-1.3.19-2.21.2v-.85.02Z"/>
            <path class="cls-1" d="M89.43,127.11c.13-.01.24-.02.36-.02,1.31,0,2.6.78,2.6,2.4s-1.07,2.47-2.71,2.47c-.71,0-1.64-.26-2.4-.86.08-.18.18-.49.24-.72.7.54,1.52.79,2.16.79,1.13,0,1.83-.61,1.83-1.69,0-.89-.61-1.58-1.88-1.58-1.01,0-2.59.52-3.95,1,.56,1.91,1.33,4.64,1.8,6.44l-.92.2c-.37-1.73-1.16-4.58-1.68-6.34-.77.28-1.85.64-2.49.88-.01.11-.1.22-.2.26l-.38-.96c.77-.24,1.98-.64,2.85-.95-.36-1.22-.7-2.3-.91-3l1.24-.23c.01.16-.05.22-.25.32.26.92.48,1.7.74,2.61,1.3-.44,2.52-.84,3.45-.97-.54-.61-1.49-1.43-2.15-1.82l.55-.54c.8.46,1.87,1.36,2.43,2.04l-.34.28h0Z"/>
            <path class="cls-1" d="M99.07,125.19c-.02.14-.17.2-.4.22-.13.67-.35,1.83-.49,2.55.54-.06,1.03-.11,1.33-.11,1.82-.02,2.45,1.19,2.45,2.99,0,.9-.17,1.97-.41,2.69-.37,1.22-1.14,1.81-2.13,1.81-.49,0-1.14-.2-2.17-1.04.13-.22.23-.48.32-.73.96.74,1.46.91,1.83.91.68,0,1.09-.43,1.33-1.2.25-.74.38-1.85.38-2.46-.01-1.37-.46-2.18-1.66-2.17-.36,0-.85.05-1.46.12-.6,2.45-1.31,4.55-2.46,6.48l-.79-.38c1.16-1.86,1.82-3.72,2.39-6-.61.07-1.49.18-2.13.29l-.07-.84c.59-.07,1.57-.18,2.37-.28.18-.88.37-1.96.52-3.01l1.25.17h0ZM104.62,130.96c-.38-1.75-1.52-3.24-2.7-4.1l.65-.5c1.27.9,2.53,2.55,2.91,4.27l-.86.34h0Z"/>
            <path class="cls-1" d="M111.39,124.96c-.04.1-.16.19-.37.2-.08.53-.19,1.15-.3,1.62,1.18-.07,2.48-.28,3.53-.59l.13.82c-1.12.28-2.43.47-3.81.58-.58,2.3-1.37,4.17-2.54,5.9l-.8-.32c1.09-1.57,1.92-3.37,2.43-5.55h-2.39v-.78h1.43c.37,0,.76-.01,1.1-.01.14-.64.25-1.32.34-2.03l1.26.17h0ZM114.58,130.07c.01.97.08,1.63.16,2.46.77.3,1.76.82,2.55,1.39l-.43.77c-.66-.5-1.48-.97-2.12-1.26,0,1.2-.48,2.13-2.24,2.13-1.33,0-2.35-.6-2.34-1.73,0-1.2,1.26-1.77,2.36-1.77.43,0,.88.08,1.35.22-.05-.77-.11-1.55-.11-2.11l.82-.1h0ZM113.92,133.07c-.49-.19-1-.28-1.43-.28-.72,0-1.57.29-1.58,1.03,0,.68.67,1.01,1.61,1.01.86,0,1.42-.42,1.42-1.21,0-.19,0-.37-.01-.55h0ZM117.21,128.83c-1.36,0-3,.23-4.25.59l-.13-.76c1.37-.4,3.02-.65,4.33-.65,0,0,.05.82.05.82Z"/>
            <path class="cls-1" d="M123.9,132.59h-3.18v1.15h-.76v-8.37h3.93v7.22h.01ZM123.14,126.11h-2.42v2.43h2.42v-2.43ZM120.72,131.84h2.42v-2.55h-2.42v2.55ZM130.21,125.14v9.5c0,.54-.13.8-.5.94-.37.13-1.03.16-2.09.16-.04-.23-.18-.58-.3-.8.41,0,.8.02,1.13.02.88,0,.97,0,.97-.31v-2.79h-3.74c-.28,1.45-.9,2.92-2.28,3.98-.12-.16-.42-.44-.6-.55,2.08-1.6,2.28-3.91,2.28-5.82v-4.32h5.13ZM125.86,129.46c0,.52-.02,1.07-.08,1.64h3.63v-2.25h-3.55s0,.61,0,.61ZM129.41,125.9h-3.55v2.21h3.55v-2.21Z"/>
            <path class="cls-1" d="M136.27,129.88c.79-.41,2.03-.7,2.97-.7,1.91,0,3.11,1.12,3.11,2.88,0,2.17-1.91,3.37-4.32,3.37-1.56,0-2.63-.62-2.63-1.68,0-.89.88-1.61,1.97-1.61,1.36,0,2.27,1.08,2.45,2.17.96-.36,1.66-1.13,1.66-2.24,0-1.3-.96-2.12-2.47-2.12-1.8,0-3.56.8-4.35,1.57-.36.34-.83.84-1.15,1.21l-.61-.61c1.08-1.13,4.51-4.4,6.14-5.92-.7.1-3.09.19-4.46.24-.04.08-.16.16-.25.18l-.1-1.02c1.62-.01,4.71-.13,5.59-.26l.18-.08.64.78c-.06.05-.17.1-.29.11-.85.7-3.13,2.83-4.07,3.73h0ZM137.93,134.68c.36,0,.78-.05,1.09-.12-.13-.92-.82-1.7-1.7-1.7-.62,0-1.18.34-1.18.89,0,.73,1,.94,1.79.94h0Z"/>
            <path class="cls-1" d="M146.63,126.23c-.02.11-.16.18-.32.19-.14.9-.23,1.98-.23,2.99,0,.44.02.88.05,1.26.14,2.04.97,3.27,1.9,3.26.48,0,1.1-1.22,1.54-2.57.17.17.49.4.7.52-.55,1.62-1.25,2.94-2.24,2.96-1.52.02-2.58-1.82-2.75-4.13-.04-.46-.05-.96-.05-1.5,0-1.06.06-2.21.18-3.23l1.24.24h-.02ZM154.58,131.81c-.34-2.1-1.4-3.61-3.02-4.51l.53-.65c1.75.94,3.03,2.66,3.38,4.88l-.89.28Z"/>
            <path class="cls-1" d="M157.21,133.44c.84-1.07,1.25-2.88,1.42-4.45l.78.17c-.19,1.61-.59,3.56-1.46,4.73l-.73-.44h0ZM160.63,128l1.06.07c0,.08-.07.14-.23.16v5.94c0,.56.13.67.83.67h2.36c.74,0,.86-.44.95-2.59.2.16.53.3.77.37-.12,2.29-.38,2.97-1.69,2.97h-2.45c-1.25,0-1.6-.31-1.6-1.44v-6.15ZM164.94,127.38c-.95-.68-2.73-1.58-4.21-2.1l.5-.62c1.46.5,3.25,1.38,4.21,2.01l-.5.71ZM167.97,133.52c-.29-1.28-1.2-3.18-2.24-4.57l.72-.35c1.09,1.39,2.01,3.25,2.33,4.54l-.8.37h0Z"/>
            <path class="cls-1" d="M171.24,132.45c.89.71,2.06,1.89,2.71,2.65l-.72.66c-.6-.77-1.82-2.03-2.63-2.75l.63-.56h0Z"/>
            <path class="cls-1" d="M37.84,153.54l-2.66.4v1.94c0,.8-.34.9-2.09.88-.04-.2-.16-.49-.25-.7.32,0,.61,0,.85,0,.7,0,.72,0,.72-.19v-1.83c-.84.13-1.61.24-2.21.32-.01.1-.08.16-.16.17l-.3-.89c.71-.08,1.64-.19,2.66-.32v-1.16l.43.02c.36-.28.74-.61,1.04-.95h-1.58c-.64.6-1.33,1.14-2.06,1.58-.12-.16-.37-.43-.54-.58.5-.29.98-.62,1.45-1.01h-.34v-.66h1.08c.3-.29.6-.6.88-.92h-3v-.72h2.17v-1.3h-1.62v-.71h1.62v-1.33l1,.07c-.01.07-.08.13-.24.16v1.1h1.58v.62c.31-.54.6-1.09.84-1.67l.94.32c-.04.1-.17.12-.29.11-.41.92-.91,1.8-1.48,2.62h1.44v.72h-1.98c-.25.32-.52.62-.79.92h1.57l.12-.05.56.37s-.11.08-.17.1c-.46.54-1.2,1.21-1.87,1.67v.56c.86-.11,1.76-.23,2.65-.35v.66l.03.02ZM34.7,148.94h.66c.31-.41.6-.85.88-1.3h-1.54v1.3ZM42.92,148.64h-.8c-.29,1.98-.76,3.62-1.51,4.95.61,1.09,1.4,1.95,2.41,2.48-.19.17-.44.47-.58.7-.96-.56-1.71-1.39-2.33-2.41-.73,1.01-1.68,1.81-2.93,2.41-.08-.19-.3-.53-.44-.68,1.28-.59,2.24-1.43,2.95-2.53-.49-1.02-.86-2.19-1.14-3.48-.24.55-.49,1.04-.78,1.45-.13-.16-.42-.4-.61-.52.85-1.2,1.46-3.31,1.81-5.4l1.02.22c-.02.1-.11.14-.26.14-.12.64-.26,1.28-.43,1.91h3.62s0,.76,0,.76ZM39.08,148.64l-.04.12c.24,1.44.6,2.78,1.12,3.95.55-1.13.9-2.48,1.14-4.07h-2.22,0Z"/>
            <path class="cls-1" d="M46.08,150.76v1.21h3.01v3.62h-3.01v.8h-.74v-8.96h1.01c.22-.55.44-1.3.56-1.83l1.02.2c-.02.1-.11.13-.25.14-.14.42-.36,1-.59,1.49h1.9v3.32h-2.91ZM48.25,148.14h-2.17v1.91h2.17v-1.91ZM48.35,152.69h-2.27v2.19h2.27v-2.19ZM56.02,147.02h-2.93v1.89h2.47v5.23c0,.84-.4.86-1.69.86-.04-.2-.14-.5-.24-.71.24,0,.46,0,.64,0,.48,0,.54,0,.54-.18v-4.47h-1.71v7.1h-.77v-7.1h-1.62v5.43h-.74v-6.18h2.36v-1.89h-2.89v-.74h6.58v.74h0Z"/>
            <path class="cls-1" d="M66.61,149.87s-.06,0-.1,0c-.08,0-.18-.02-.25-.07-3.56,1.04-6.79,2.62-6.78,4.22,0,1.15,1.27,1.55,3.21,1.55s3.41-.14,4.25-.28l.07.88c-1.1.14-2.89.22-4.29.22-2.37,0-4.1-.55-4.11-2.31,0-1.28,1.27-2.41,3.15-3.38-.41-.73-.55-2.12-.55-4.83l1.32.11c0,.16-.13.25-.37.29,0,2.1.06,3.41.4,4.05,1.13-.53,2.42-1.01,3.74-1.44l.31,1v-.02Z"/>
            <path class="cls-1" d="M74.34,152.8c-.01.08-.11.14-.24.16-.32,1.86-1,3.17-3.83,3.85-.08-.2-.3-.54-.47-.71,2.61-.55,3.24-1.65,3.47-3.41l1.07.11ZM71.11,145.95l1.02.07c-.01.08-.08.14-.24.16v6.32h-.78v-6.55h0ZM73.84,146.17h6.02v6.16h-6.02v-6.16ZM74.64,146.88v2h4.41v-2s-4.41,0-4.41,0ZM74.64,149.57v2.04h4.41v-2.04s-4.41,0-4.41,0ZM76.48,152.68l1.06.07c-.01.08-.07.14-.23.17v2.61c0,.34.08.4.6.4h1.73c.49,0,.58-.23.62-1.79.17.16.52.28.74.33-.1,1.79-.34,2.22-1.3,2.22h-1.88c-1.06,0-1.34-.25-1.34-1.15v-2.87h0Z"/>
            <path class="cls-1" d="M91.7,147.64c-.04.07-.12.11-.24.11-.19.31-.47.76-.73,1.09h3.41v.67h-11.02v-.67h3.29c-.11-.37-.37-.86-.65-1.22l.67-.22h-2.48v-.67h4.23v-1.13l1.08.07c-.01.08-.08.14-.24.17v.89h4.31v.67h-2.3l.68.24h0ZM88.99,154.93v.86h5.13v.67h-11.01v-.67h5.09v-.86h-4.21v-.6h4.21v-.74h-3.57v-3.35h8.02v3.35h-3.66v.74h4.27v.6h-4.27,0ZM85.4,150.81v.83h2.81v-.83h-2.81ZM85.4,153.01h2.81v-.83h-2.81v.83ZM86.68,148.84h3.63c-.12-.05-.24-.11-.32-.13.23-.36.54-.9.72-1.31h-4.23c.32.37.6.9.71,1.27l-.5.17h0ZM91.86,151.63v-.83h-2.87v.83h2.87ZM91.86,153.01v-.83h-2.87v.83h2.87Z"/>
            <path class="cls-1" d="M102.1,147.8c-.05.11-.14.19-.3.19-.43,3.73-1.68,6.98-3.67,6.98-1.01,0-1.92-1.01-1.92-2.9,0-2.88,2.24-5.29,5.4-5.29,3.47,0,4.97,2.2,4.97,4.53,0,2.85-1.66,4.23-4.56,4.91-.11-.19-.31-.52-.5-.73,2.76-.53,4.17-1.87,4.17-4.14,0-1.98-1.27-3.78-4.08-3.78-.12,0-.25,0-.36.02l.85.2h0ZM100.95,147.64c-2.42.3-3.92,2.3-3.92,4.4,0,1.28.55,2.09,1.13,2.09,1.45,0,2.49-3.2,2.79-6.49h0Z"/>
            <path class="cls-1" d="M109.61,150.03c1.8-.49,4.07-.98,4.97-.98,1.8,0,2.85.96,2.85,2.73v.1c-.02,2.18-1.74,3.78-5.18,4.7-.11-.2-.36-.53-.54-.73,3.07-.73,4.81-2.17,4.81-3.99,0-1.15-.55-1.98-1.98-1.98-.96,0-2.87.43-4.34.95.01.1-.11.22-.23.28l-.36-1.07h0ZM111.29,145.88c1.64.14,3.54.49,4.82.94l-.25.84c-1.27-.43-3.21-.83-4.77-.96l.2-.82h0Z"/>
            <path class="cls-1" d="M128.87,148.04c-1.56.4-3.73.65-5.16.7-.16,1.5-.37,2.73-.56,3.18.94-.76,2.39-1.27,3.41-1.27,1.79,0,2.88.96,2.88,2.58,0,2.39-2.41,3.19-6.31,3.29-.05-.23-.13-.59-.24-.79,3.44-.07,5.67-.66,5.67-2.47,0-1.08-.72-1.82-2.11-1.82-1.07,0-2.9.65-3.69,1.83l-.84-.4c.38-.43.78-2.15.96-4.11h-2.81v-.84c.5,0,1.98,0,2.88,0,.05-.68.07-1.45.07-2.17l1.27.12c-.02.2-.17.24-.38.26-.02.6-.06,1.21-.11,1.78,1.27-.04,3.48-.31,4.92-.73l.16.86h-.01Z"/>
            <path class="cls-1" d="M140.78,149.87s-.06,0-.1,0c-.08,0-.18-.02-.25-.07-3.56,1.04-6.79,2.62-6.78,4.22,0,1.15,1.27,1.55,3.21,1.55s3.41-.14,4.25-.28l.07.88c-1.1.14-2.89.22-4.29.22-2.37,0-4.1-.55-4.11-2.31,0-1.28,1.27-2.41,3.15-3.38-.41-.73-.55-2.12-.55-4.83l1.32.11c0,.16-.13.25-.37.29,0,2.1.06,3.41.4,4.05,1.13-.53,2.42-1.01,3.74-1.44l.31,1v-.02Z"/>
            <path class="cls-1" d="M145.89,146.58c-.02.11-.13.19-.31.22-.35,1.51-.62,3.61-.62,4.95,0,.83.04,1.54.12,2.01.26-.54.85-1.68,1.22-2.38l.55.56c-.88,1.56-1.43,2.55-1.43,3.02,0,.14.04.3.1.49l-.84.17c-.31-.86-.55-2.18-.55-3.86,0-1.54.25-3.6.6-5.38l1.16.19h0ZM147.67,149.31c.96,0,2.37-.02,3.24-.08-.07-1.39-.16-3.05-.19-3.3l1.24.05c0,.13-.13.24-.32.28.02.66.08,1.88.13,2.93.82-.07,1.69-.19,2.35-.37l.08.85c-.67.14-1.52.26-2.41.32,0,.07,0,.26,0,.97,0,2.59-.58,4.43-2.89,5.58-.1-.13-.44-.46-.65-.6,2.22-1.08,2.69-2.65,2.69-4.91v-1c-.82.05-2.19.08-3.26.08v-.8h-.02Z"/>
            <path class="cls-1" d="M163.57,148.24c-1.02.36-2.38.59-3.68.68-.5,2.75-1.24,5.48-2.2,7.5l-.86-.32c.98-1.93,1.7-4.41,2.17-7.14-.24,0-1.85.02-2.21,0v-.82c.18,0,.43,0,.71,0,.11,0,1.31,0,1.62,0,.12-.77.24-1.61.31-2.34l1.24.12c0,.13-.18.23-.35.24-.07.53-.19,1.18-.3,1.91,1.17-.11,2.36-.31,3.36-.67l.19.83h0ZM166.76,156.23c-.36,0-.73.02-1.1.02-1.13,0-2.2-.08-2.84-.26-.85-.24-1.34-.86-1.33-1.66,0-.53.24-1.13.74-1.74l.72.31c-.42.49-.62.96-.62,1.33,0,.95.91,1.19,3.09,1.19.44,0,.9,0,1.34-.05v.85h0ZM162.09,150.45c1.24-.4,2.94-.65,4.35-.61v.82c-1.36-.04-2.93.16-4.15.54l-.2-.74h0Z"/>
            <path class="cls-1" d="M172.95,150.6c.42,1.07,1.02,1.99,1.8,2.77.78-.77,1.38-1.7,1.8-2.84l1.01.34c-.02.07-.13.12-.28.11-.47,1.17-1.12,2.13-1.92,2.94,1.28,1.04,2.95,1.74,4.99,2.08-.18.18-.42.54-.54.77-2.09-.41-3.77-1.15-5.09-2.28-1.33,1.09-3.03,1.82-5.07,2.32-.1-.2-.31-.55-.47-.73,1.99-.43,3.66-1.1,4.95-2.13-.83-.85-1.48-1.88-1.96-3.08l.77-.24v-.03ZM173.53,148.85c-.04.1-.14.11-.26.1-.83,1.07-2.13,2.15-3.31,2.85-.13-.18-.42-.47-.6-.61,1.14-.61,2.46-1.67,3.21-2.75l.96.41h0ZM180.05,147.23v.79h-10.65v-.79h4.89v-1.63l1.06.06c0,.08-.07.14-.24.17v1.4h4.94ZM179.45,151.69c-.65-.8-2.06-1.98-3.24-2.79l.66-.48c1.15.77,2.59,1.91,3.29,2.71l-.71.56h0Z"/>
            <path class="cls-1" d="M182.71,149c.78.3,1.75.83,2.24,1.24l-.46.67c-.48-.41-1.44-.96-2.22-1.29l.43-.61h.01ZM182.63,156.06c.62-.95,1.51-2.58,2.17-3.96l.61.5c-.6,1.28-1.39,2.79-1.98,3.74.05.06.06.12.06.17s0,.1-.04.13l-.83-.59h0ZM183.36,145.72c.77.34,1.71.89,2.18,1.32l-.47.66c-.46-.44-1.39-1.03-2.17-1.39l.46-.59h0ZM187.45,152.64c0,1.35-.19,2.91-1.82,4.1-.13-.18-.4-.42-.59-.54,1.51-1.04,1.67-2.43,1.67-3.59v-1.27l.97.06c0,.08-.07.13-.23.16v1.08h0ZM185.73,150.07l1.39-.04c.38-.59.79-1.4,1.08-2.08h-2.62v-.74h3.27v-1.61l1.06.06c0,.1-.07.14-.24.17v1.38h3.68v.74h-4.05c-.04.08-.12.11-.25.11-.28.56-.7,1.32-1.08,1.94,1.09-.04,2.33-.08,3.54-.13-.35-.37-.73-.76-1.09-1.07l.62-.35c.88.72,1.85,1.76,2.29,2.49l-.66.41c-.14-.25-.36-.54-.61-.85-2.16.13-4.42.25-5.85.31-.02.1-.08.14-.17.17l-.31-.92h0ZM188.86,156.24v-4.83l.96.06c0,.08-.07.14-.23.17v4.61h-.73ZM191.8,155.41c0,.43.02.49.29.49h.38c.31,0,.37-.12.41-.38.02-.2.04-.66.05-1.25.14.13.38.25.58.31-.04,1.4-.05,1.98-.98,1.98h-.6c-.88,0-.88-.56-.88-1.25v-3.97l1,.06c0,.08-.07.14-.24.16v3.85h0Z"/>
            <path class="cls-1" d="M196.13,153.45c.89.71,2.06,1.89,2.71,2.65l-.72.66c-.6-.77-1.82-2.03-2.63-2.75l.64-.56Z"/>
            <path class="cls-1" d="M7.39,171.41v3.95c.92,1.43,2.63,1.43,4.91,1.43,1.31,0,2.84-.02,3.78-.08-.1.18-.22.55-.26.79-.82.02-2.11.05-3.31.05-2.63,0-4.27,0-5.46-1.5-.64.55-1.3,1.08-1.83,1.49,0,.11-.02.16-.11.19l-.46-.86c.59-.38,1.32-.91,1.97-1.44v-3.24h-1.81v-.77h2.59,0ZM5.58,166.89c.78.55,1.68,1.38,2.06,1.99l-.6.55c-.38-.61-1.26-1.48-2.04-2.05,0,0,.58-.49.58-.49ZM12.32,169.66c-.76-.37-1.68-.78-2.46-1.07l.53-.47c.53.19,1.14.43,1.73.7.64-.29,1.31-.66,1.82-1.03h-5.25v-.66h6.08l.13-.04.61.4s-.12.08-.19.1c-.61.53-1.54,1.13-2.46,1.57.37.17.71.35.98.5h1.55v5.46c0,.79-.25.88-2.04.88-.04-.22-.13-.49-.23-.68.35,0,.68.02.92.02.52,0,.58,0,.58-.22v-1.22h-2.25v2.03h-.73v-2.03h-2.17v2.08h-.77v-6.31h3.62ZM11.64,170.31h-2.17v1.14h2.17v-1.14ZM9.47,173.26h2.17v-1.19h-2.17s0,1.19,0,1.19ZM14.63,171.45v-1.14h-2.25v1.14h2.25ZM12.37,173.26h2.25v-1.19h-2.25v1.19Z"/>
            <path class="cls-1" d="M20.69,167.17c-.02.14-.13.23-.37.26-.1,1.39-.22,4.57-.22,6.34s.89,2.65,2.4,2.65,2.95-.73,4.32-2.28c.12.19.4.58.54.71-1.4,1.59-3.11,2.43-4.87,2.43-2.18,0-3.3-1.26-3.3-3.53,0-1.51.11-5.23.19-6.7l1.31.11h0ZM23.94,168.42c.56.43,1.26,1.15,1.63,1.66l-.44.37c-.36-.52-1.09-1.26-1.61-1.66,0,0,.42-.37.42-.37ZM25.41,167.33c.58.43,1.28,1.14,1.64,1.63l-.46.38c-.32-.48-1.03-1.21-1.6-1.64l.41-.37h.01Z"/>
            <path class="cls-1" d="M33.3,171.88c.79-.41,2.03-.7,2.97-.7,1.91,0,3.11,1.12,3.11,2.88,0,2.17-1.91,3.37-4.32,3.37-1.56,0-2.63-.62-2.63-1.68,0-.89.88-1.61,1.97-1.61,1.36,0,2.27,1.08,2.45,2.17.96-.36,1.66-1.13,1.66-2.24,0-1.3-.96-2.12-2.47-2.12-1.8,0-3.56.8-4.35,1.57-.36.34-.83.84-1.15,1.21l-.61-.61c1.08-1.13,4.51-4.4,6.14-5.92-.7.1-3.09.19-4.46.24-.04.08-.16.16-.25.18l-.1-1.02c1.62,0,4.71-.13,5.59-.26l.18-.08.64.78c-.06.05-.17.1-.29.11-.85.7-3.13,2.83-4.07,3.73h0ZM34.95,176.68c.36,0,.78-.05,1.09-.12-.13-.92-.82-1.7-1.7-1.7-.62,0-1.18.34-1.18.89,0,.73,1,.94,1.79.94h0Z"/>
            <path class="cls-1" d="M50.07,173.8l.56.36s-.1.1-.17.11c-.58.78-1.37,1.4-2.3,1.9,1.34.47,2.93.75,4.59.89-.17.18-.36.5-.47.72-1.82-.18-3.56-.58-5-1.2-1.48.61-3.21.98-4.99,1.21-.07-.19-.28-.52-.42-.68,1.61-.17,3.2-.46,4.56-.93-.67-.37-1.27-.8-1.75-1.31-.67.46-1.4.85-2.11,1.15-.12-.14-.37-.38-.54-.52,1.42-.54,2.94-1.5,3.83-2.58-.53-.08-.67-.31-.67-.86v-1.24l.98.07c0,.08-.07.14-.23.16v1.01c0,.24.08.29.61.29h1.88c.4,0,.48-.1.52-.85.16.11.46.19.66.24-.08,1-.3,1.22-1.08,1.22h-2.31l.58.23c-.05.06-.14.1-.26.08-.17.19-.35.38-.55.58h3.95l.14-.04h-.01ZM43.07,170.08v1.32h-.77v-1.99h2.18c-.14-.41-.48-.95-.8-1.34l.32-.13-1.32.04c0-.18-.1-.47-.17-.62,3.02-.1,6.74-.34,8.7-.74l.61.61s-.07.04-.12.04c-.04,0-.07,0-.12-.02-1.14.22-2.75.4-4.46.53.3.44.56,1,.66,1.38l-.72.26c-.08-.43-.4-1.08-.72-1.56l.11-.04c-.67.05-1.36.08-2.02.11.35.42.67.94.79,1.32l-.4.18h4.47c.4-.49.89-1.26,1.16-1.77l.89.4c-.04.06-.12.1-.25.1-.24.37-.6.86-.96,1.28h2.15v2.06h-.8v-1.39h-4.76c.61.28,1.32.66,1.69.97l-.43.5c-.4-.34-1.18-.79-1.82-1.08l.36-.4h-3.45v-.02ZM44.62,171.06c-.26.8-.7,1.54-1.58,1.94l-.55-.49c.78-.32,1.26-.97,1.49-1.68l.65.23h-.01ZM45.24,174.46h0c.52.54,1.22,1,2.05,1.35.82-.36,1.52-.82,2.04-1.35h-4.09ZM51.54,172.93c-.4-.53-1.25-1.32-1.97-1.87l.55-.4c.73.52,1.6,1.27,2,1.81l-.59.46h.01Z"/>
            <path class="cls-1" d="M60.7,168.8c-.05.11-.14.19-.3.19-.43,3.73-1.68,6.98-3.67,6.98-1.01,0-1.92-1.01-1.92-2.9,0-2.88,2.24-5.29,5.4-5.29,3.47,0,4.97,2.19,4.97,4.53,0,2.85-1.66,4.23-4.56,4.91-.11-.19-.31-.52-.5-.73,2.76-.53,4.17-1.87,4.17-4.14,0-1.98-1.27-3.78-4.08-3.78-.12,0-.25,0-.36.02l.85.2h0ZM59.55,168.64c-2.42.3-3.92,2.3-3.92,4.4,0,1.28.55,2.09,1.13,2.09,1.45,0,2.49-3.2,2.79-6.49h0Z"/>
            <path class="cls-1" d="M68.21,171.03c1.8-.49,4.07-.98,4.97-.98,1.8,0,2.85.96,2.85,2.73v.1c-.02,2.18-1.74,3.78-5.18,4.7-.11-.2-.36-.53-.54-.73,3.07-.73,4.81-2.17,4.81-3.99,0-1.15-.55-1.98-1.98-1.98-.96,0-2.87.43-4.34.95.01.1-.11.22-.23.28l-.36-1.07h0ZM69.89,166.88c1.64.14,3.54.49,4.82.94l-.25.84c-1.27-.43-3.21-.83-4.77-.96l.2-.82h0Z"/>
            <path class="cls-1" d="M87.48,169.04c-1.56.4-3.73.65-5.16.7-.16,1.5-.37,2.73-.56,3.18.94-.75,2.39-1.27,3.41-1.27,1.79,0,2.88.96,2.88,2.58,0,2.39-2.41,3.19-6.31,3.29-.05-.23-.13-.59-.24-.79,3.44-.07,5.67-.66,5.67-2.47,0-1.08-.72-1.82-2.11-1.82-1.07,0-2.9.65-3.69,1.83l-.84-.4c.38-.43.78-2.15.96-4.11h-2.81v-.84c.5,0,1.98,0,2.88,0,.05-.68.07-1.45.07-2.17l1.27.12c-.02.2-.17.24-.38.26-.02.6-.06,1.21-.11,1.77,1.27-.04,3.48-.31,4.92-.73l.16.86h-.01Z"/>
            <path class="cls-1" d="M93.02,167.5c-.04.13-.16.2-.4.19-.42,1.96-.64,4.1-.64,5.4,0,.9.04,1.81.16,2.37.23-.59.74-1.85.91-2.27l.5.53c-.49,1.21-.85,1.9-1.02,2.44-.06.2-.1.4-.1.56,0,.13.02.25.06.37l-.85.16c-.38-1.14-.53-2.53-.53-4.13s.25-3.77.64-5.84l1.26.22h0ZM100.66,176.27c-.43.02-.88.04-1.32.04-.85,0-1.65-.05-2.23-.13-1.48-.22-2.16-1.03-2.16-1.99,0-.83.46-1.52,1.13-2.31l.78.34c-.6.62-1.02,1.2-1.02,1.88,0,1.39,2.04,1.39,3.29,1.39.5,0,1.04-.02,1.55-.06v.85h-.02ZM95.11,168.94c1.55-.04,3.63-.18,5.23-.46l.07.84c-1.49.25-3.9.41-5.28.44l-.02-.83h0Z"/>
            <path class="cls-1" d="M105.05,171.84c-.48-.4-1.44-.88-2.22-1.15.22-.35.31-.49.41-.64.78.25,1.75.7,2.23,1.07l-.42.72h0ZM103.15,177.11c.59-.92,1.43-2.51,2.04-3.86l.62.48c-.56,1.26-1.31,2.74-1.86,3.65.05.06.06.11.06.17,0,.05-.01.1-.04.13l-.83-.56h.01ZM103.88,166.76c.77.35,1.7.91,2.16,1.34l-.49.66c-.46-.44-1.37-1.06-2.13-1.43l.47-.58h-.01ZM113.97,173.62h-3.09c.76,1.2,1.99,2.39,3.17,2.94-.19.16-.44.44-.58.66-1.16-.66-2.39-1.96-3.15-3.29v3.79h-.79v-3.73c-.85,1.4-2.16,2.64-3.44,3.31-.12-.19-.36-.47-.53-.62,1.3-.58,2.6-1.76,3.41-3.06h-2.83v-.74h3.39v-1.42l1.02.06c-.01.08-.07.14-.23.17v1.19h3.66v.74h0ZM109.38,168.27c-.01.08-.08.14-.23.16-.18,1.71-.67,2.88-2.78,3.49-.07-.18-.28-.46-.42-.59,1.9-.5,2.33-1.47,2.47-3.14l.96.08h0ZM107.18,167.86v1.62h-.73v-2.33h7.17v2.32h-.74v-1.61h-5.7ZM110.7,168.11l.98.07c-.01.07-.07.13-.23.16v2.17c0,.25.05.29.38.29h1.09c.26,0,.31-.1.35-.82.16.11.44.22.67.26-.08.98-.3,1.24-.92,1.24h-1.28c-.84,0-1.04-.2-1.04-.97,0,0,0-2.4,0-2.4Z"/>
            <path class="cls-1" d="M124.23,167.14c-.02.11-.16.16-.31.18-.13.83-.3,1.62-.49,2.33,2.1.4,3.26,1.92,3.26,3.77,0,2.13-1.62,3.5-4.65,3.93-.12-.25-.25-.52-.38-.73,2.65-.35,4.16-1.43,4.16-3.18,0-1.45-.92-2.67-2.63-3-.56,1.85-1.33,3.27-2.17,4.27.16.22.36.41.55.59l-.61.59c-.18-.18-.35-.37-.52-.59-.78.74-1.63,1.12-2.43,1.12-1.06,0-1.7-.9-1.7-2.21,0-1.63.9-2.89,2.11-3.68-.23-.91-.42-1.91-.59-2.99l1.15-.02c-.01.11-.08.23-.25.26.12.83.25,1.63.42,2.38,1.32-.66,2.59-.66,3.13-.66.1,0,.2,0,.29,0,.19-.79.36-1.68.48-2.63l1.19.26h-.01ZM119.99,174.66c-.54-.88-.98-1.99-1.34-3.32-.75.53-1.55,1.48-1.55,2.81,0,.85.32,1.46.97,1.46.74,0,1.38-.43,1.92-.95ZM120.53,174c.72-.88,1.34-2.1,1.82-3.72-.13,0-.29,0-.42,0-.92,0-1.82.22-2.6.65.31,1.2.7,2.27,1.2,3.08Z"/>
            <path class="cls-1" d="M131.57,169.19c-.05.12-.14.18-.31.2-.1,1.77-.32,3.29-.49,3.54h.01c1.17-.88,3.01-1.48,4.41-1.48,1.85,0,3,.95,2.97,2.63-.04,2.21-1.86,3.19-6.5,3.38-.06-.23-.17-.56-.3-.79,4.19-.18,5.86-.86,5.9-2.58,0-1.15-.79-1.85-2.2-1.85-2.22,0-4.22,1.33-4.56,1.92l-.82-.4c.24-.23.66-2.38.68-4.73l1.19.14.02.02ZM131.77,166.87c1.63.19,3.48.56,4.65,1.05l-.3.83c-1.24-.53-3.02-.88-4.61-1.09l.25-.79h.01Z"/>
            <path class="cls-1" d="M141.42,169.36c.97,0,1.86-.08,2.25-.18.02-.72.04-1.12.08-2.21l1.24.1c-.02.13-.13.22-.34.24-.05.53-.1,1.27-.12,1.71l.37.14c-.29.58-.41,1.28-.48,1.71,1.32-1.24,2.78-2.11,3.78-2.11,1.13,0,1.69.79,1.69,2.18,0,.16,0,.31-.02.47-.08,1.06-.2,2.55-.2,3.51,0,.72.08,1.1.59,1.1.36,0,1.08-.36,1.59-.8.02.24.12.73.17.91-.61.44-1.33.78-1.88.78-1.01,0-1.34-.6-1.34-1.85,0-.62.22-3.92.22-3.93,0-1.04-.36-1.51-.95-1.51-.9,0-2.41.97-3.66,2.29,0,1.74,0,3.87,0,5.5h-.84c0-.7,0-4.11,0-4.88-.42.84-1.24,1.93-2.18,2.89l-.43-.76c1-.94,2.11-2.39,2.64-3.62,0-.35,0-.67.02-1.06-.42.1-1.29.19-2.21.2v-.85.03Z"/>
            <path class="cls-1" d="M161.05,169.24c-1.02.36-2.38.59-3.68.68-.5,2.75-1.24,5.48-2.2,7.5l-.86-.32c.98-1.93,1.7-4.41,2.17-7.14-.24,0-1.85.02-2.21,0v-.82c.18,0,.43,0,.71,0,.11,0,1.31,0,1.62,0,.12-.77.24-1.61.31-2.34l1.24.12c0,.13-.18.23-.35.24-.07.53-.19,1.17-.3,1.91,1.17-.11,2.36-.31,3.36-.67l.19.83h0ZM164.24,177.23c-.36,0-.73.02-1.1.02-1.13,0-2.2-.08-2.84-.26-.85-.24-1.34-.86-1.33-1.66,0-.53.24-1.13.74-1.74l.72.31c-.42.49-.62.96-.62,1.33,0,.95.91,1.19,3.09,1.19.44,0,.9,0,1.34-.05v.85h0ZM159.56,171.45c1.24-.4,2.94-.65,4.35-.61v.82c-1.36-.04-2.93.16-4.15.54l-.2-.74h0Z"/>
            <path class="cls-1" d="M168.13,170.85c-.46.76-.96,1.43-1.46,2-.08-.19-.29-.56-.42-.76,1.15-1.25,2.3-3.32,3-5.4l.96.32c-.05.08-.13.12-.28.11-.31.84-.68,1.68-1.1,2.48l.32.08c-.02.07-.08.13-.24.14v7.95h-.78v-6.94.02ZM169.74,168.88h7.92v.68h-7.92v-.68ZM170.63,177.75v-3.85h6.2v3.81h-.82v-.56h-4.61v.6h-.78.01ZM176.72,170.56v.67h-5.97v-.67h5.97ZM170.75,172.91v-.67h5.96v.67h-5.96ZM176.5,167.2v.67h-5.62v-.67h5.62ZM176.01,174.58h-4.61v1.91h4.61v-1.91Z"/>
            <path class="cls-1" d="M182.75,173.27c.47.37,1.76,1.56,2.08,1.86l-.5.62c-.28-.37-1.02-1.15-1.57-1.7v3.72h-.73v-3.72c-.58,1.13-1.33,2.24-2.06,2.9-.08-.22-.28-.54-.4-.72.82-.7,1.75-1.99,2.27-3.19h-1.7v-3.09h1.89v-1.14h-2.16v-.73h2.16v-1.46l.96.07c0,.07-.07.13-.23.16v1.24h2.12v.73h-2.12v1.14h1.96v3.09h-1.96v.23h-.01ZM180.77,170.59v1.8h1.28v-1.8h-1.28ZM184.03,172.39v-1.8h-1.32v1.8h1.32ZM187.34,176.16s-.11.07-.22.08c-.48.53-1.5,1.15-2.38,1.5-.13-.16-.37-.4-.55-.54.9-.34,1.9-.94,2.36-1.45l.78.41h.01ZM185.52,169.17h1.63c.1-.38.2-.85.26-1.25h-2.38v-.72h5.85v.72h-2.66c-.07.36-.19.83-.31,1.25h2.45v6.31h-4.85v-6.31h.01ZM189.6,171.06v-1.25h-3.33v1.25h3.33ZM189.6,172.93v-1.26h-3.33v1.26h3.33ZM189.6,174.83v-1.27h-3.33v1.27h3.33ZM190.42,177.8c-.44-.46-1.34-1.14-2.06-1.61l.6-.4c.72.44,1.64,1.1,2.11,1.56l-.65.44h0Z"/>
            <path class="cls-1" d="M195.29,167.5c-.04.13-.16.2-.4.19-.42,1.96-.64,4.1-.64,5.4,0,.9.04,1.81.16,2.37.23-.59.74-1.85.91-2.27l.5.53c-.49,1.21-.85,1.9-1.02,2.44-.06.2-.1.4-.1.56,0,.13.02.25.06.37l-.85.16c-.38-1.14-.53-2.53-.53-4.13s.25-3.77.64-5.84l1.26.22h.01ZM202.93,176.27c-.43.02-.88.04-1.32.04-.85,0-1.65-.05-2.23-.13-1.47-.22-2.16-1.03-2.16-1.99,0-.83.46-1.52,1.13-2.31l.78.34c-.6.62-1.02,1.2-1.02,1.88,0,1.39,2.04,1.39,3.29,1.39.5,0,1.04-.02,1.55-.06v.85h-.02ZM197.38,168.94c1.55-.04,3.63-.18,5.23-.46l.07.84c-1.49.25-3.9.41-5.28.44l-.02-.83h0Z"/>
            <path class="cls-1" d="M214.58,176.68c-1.03-.82-2.34-1.6-3.6-2,.02.47-.06,1.08-.16,1.39-.1,1-1.02,1.38-2.12,1.38-1.55,0-2.77-.76-2.78-1.97-.02-1.21,1.25-1.95,2.76-1.97.42,0,.96.02,1.4.11,0-.32-.06-.6-.07-.88-.11-1.57-.2-4.09-.22-5.82l1.25.07c0,.12-.11.23-.31.25,0,.32,0,1.91,0,2.27.78,0,2.53-.13,3.98-.38l.08.85c-1.37.22-3.14.34-4.05.35,0,.68.02.96.2,3.44,1.55.46,3.01,1.27,4.19,2.13l-.55.77h0ZM208.66,174.23c-1.15.02-1.96.5-1.96,1.19,0,.88.95,1.26,1.91,1.26.84,0,1.54-.3,1.54-1.15,0-.28,0-.77-.02-1.12-.48-.14-1.01-.18-1.46-.18h0Z"/>
            <path class="cls-1" d="M219.01,173.69c-.23-.65-.34-1.58-.35-2.25,0-1.13.12-2.43.41-3.96l1.2.2c-.05.16-.19.19-.35.2-.24,1-.41,2.52-.41,3.49,0,.26,0,.48.04.65.24-.59.68-1.4.94-1.86.11.16.35.41.47.53-.89,1.6-1.15,2.05-1.15,2.55,0,.1,0,.19.04.3l-.83.14h0ZM225.44,167.17c0,.14-.11.2-.31.26.08,1.04.2,2.78.2,4.16,0,2.32-.85,4.4-4.46,5.9-.13-.19-.42-.52-.6-.7,3.27-1.25,4.15-3.23,4.15-5.19,0-1.48-.14-3.21-.28-4.5l1.29.06h.01Z"/>
            <path class="cls-1" d="M43.19,190.98c.74.31,1.66.83,2.11,1.24l-.47.66c-.43-.41-1.33-.96-2.09-1.29l.44-.6h.01ZM43.03,198.09c.58-.95,1.39-2.55,1.99-3.93l.62.49c-.54,1.27-1.27,2.77-1.8,3.69.05.06.06.12.06.17s0,.1-.04.13l-.84-.55h0ZM43.82,187.72c.73.35,1.64.9,2.07,1.33-.26.35-.37.5-.48.65-.43-.43-1.32-1.02-2.06-1.39l.47-.59ZM53.05,197.68h.88v.72h-8.64v-.72h1.09v-3.81h6.67v3.81ZM52.65,188.15v4.61h-5.88v-4.61h5.88ZM47.11,194.57v3.11h1.28v-3.11h-1.28ZM51.86,190.12v-1.27h-4.32v1.27h4.32ZM51.86,192.07v-1.29h-4.32v1.29h4.32ZM50.32,194.57h-1.28v3.11h1.28v-3.11ZM52.28,194.57h-1.29v3.11h1.29v-3.11Z"/>
            <path class="cls-1" d="M60.53,188.19c-.02.14-.17.2-.4.22-.13.67-.35,1.83-.49,2.55.54-.06,1.03-.11,1.33-.11,1.82-.02,2.45,1.19,2.45,2.99,0,.9-.17,1.97-.41,2.69-.37,1.22-1.14,1.81-2.13,1.81-.49,0-1.14-.2-2.17-1.04.13-.22.23-.48.32-.73.96.74,1.46.91,1.83.91.68,0,1.09-.43,1.33-1.2.25-.74.38-1.85.38-2.46,0-1.37-.46-2.18-1.65-2.17-.36,0-.85.05-1.46.12-.6,2.45-1.31,4.55-2.46,6.48l-.79-.38c1.16-1.86,1.82-3.72,2.39-6-.61.07-1.49.18-2.13.29l-.07-.84c.59-.07,1.57-.18,2.37-.28.18-.88.37-1.96.52-3.01l1.25.17h0ZM66.08,193.96c-.38-1.75-1.52-3.24-2.7-4.1l.65-.5c1.27.9,2.53,2.55,2.91,4.27l-.86.33Z"/>
            <path class="cls-1" d="M70.83,189.23c-.02.11-.16.18-.32.19-.14.9-.23,1.98-.23,2.99,0,.44.02.88.05,1.26.14,2.04.97,3.27,1.9,3.26.48,0,1.1-1.22,1.54-2.57.17.17.49.4.7.52-.55,1.62-1.25,2.94-2.24,2.96-1.52.02-2.58-1.82-2.75-4.13-.04-.46-.05-.96-.05-1.5,0-1.06.06-2.21.18-3.23l1.24.24h-.02ZM78.79,194.81c-.34-2.1-1.4-3.61-3.02-4.51l.53-.65c1.75.94,3.03,2.66,3.38,4.88l-.89.28h0Z"/>
            <path class="cls-1" d="M86.64,188.08c0,.1-.1.16-.25.18l-.02.35c.13,1.69.85,7.29,5.42,9.37-.23.17-.48.46-.61.67-3.24-1.54-4.58-4.8-5.15-7.28h-.01c-.5,2.43-1.74,5.55-4.99,7.27-.14-.19-.4-.44-.65-.61,5-2.51,5.04-8.41,5.12-10.03l1.14.08Z"/>
            <path class="cls-1" d="M98.52,192.28h-3.57v6.49h-.79v-10.63h4.37v4.14h-.01ZM97.75,188.78h-2.81v1.1h2.81v-1.1ZM94.94,191.64h2.81v-1.15h-2.81v1.15ZM101.35,197.62h-3.78v.64h-.74v-5.03h4.52v4.39ZM100.58,193.87h-3.01v1.2h3.01v-1.2ZM97.57,196.97h3.01v-1.26h-3.01v1.26ZM104.13,188.14v9.5c0,1.07-.47,1.12-2.54,1.12-.02-.23-.16-.61-.28-.84.38,0,.77.02,1.07.02.88,0,.95,0,.95-.3v-5.35h-3.67v-4.15h4.47ZM103.33,188.78h-2.89v1.1h2.89v-1.1ZM100.44,191.65h2.89v-1.16h-2.89v1.16Z"/>
            <path class="cls-1" d="M111.54,192.06h-3.6v6.7h-.79v-10.63h4.39v3.92h0ZM110.77,188.76h-2.83v1.02h2.83v-1.02ZM107.94,191.44h2.83v-1.08h-2.83v1.08ZM117.17,188.14v9.61c0,.95-.44,1.01-2,1.01-.02-.2-.13-.54-.23-.76-.04.05-.06.1-.08.14-1.24-.34-2.13-1.02-2.69-1.99-.32.74-1.09,1.47-2.85,2.03-.1-.16-.31-.41-.48-.54,1.8-.49,2.46-1.22,2.7-1.88h-2.6v-.64h2.72v-1.02h-2.52v-.62h1.38c-.12-.32-.35-.73-.58-1.04l.64-.19c.3.37.59.88.68,1.22h-.04,1.64c.23-.35.52-.91.66-1.28l.85.34c-.04.07-.13.1-.24.08-.14.24-.36.59-.56.88h1.54v.62h-2.71v1.02h2.94v.64h-2.65c.48.9,1.39,1.52,2.63,1.79-.12.1-.25.26-.36.42.32,0,.62.02.85.02.52,0,.58,0,.58-.24v-5.67h-3.71v-3.93h4.5v-.02ZM116.37,188.76h-2.93v1.02h2.93v-1.02ZM113.45,191.45h2.93v-1.09h-2.93v1.09Z"/>
            <path class="cls-1" d="M121.21,191.88c-.43.73-.89,1.4-1.37,1.97-.1-.19-.29-.58-.42-.76,1.1-1.25,2.18-3.33,2.85-5.41l.95.31c-.02.08-.12.13-.26.12-.29.8-.62,1.61-1.01,2.38l.28.08c-.01.07-.08.13-.24.16v8.04h-.78v-6.88h0ZM125.32,195.66c-.02.07-.11.12-.24.11-.4.76-1.17,1.8-1.88,2.47-.14-.13-.42-.32-.59-.43.7-.64,1.43-1.63,1.8-2.43l.91.29h0ZM128.88,192.12c.85.82,1.76,1.97,2.17,2.74l-.68.36c-.12-.25-.3-.53-.5-.83l-2.75.11v4.26h-.79v-4.23c-1.22.05-2.34.08-3.2.11-.01.1-.1.14-.18.16l-.26-.92,2.07-.04c.29-.25.59-.54.9-.84-.59-.61-1.62-1.39-2.5-1.92l.47-.52c.26.16.54.32.82.52.43-.5.94-1.15,1.31-1.72-.82.08-1.64.16-2.42.22-.04-.19-.13-.48-.23-.66,2.29-.19,5.06-.53,6.55-.97l.62.68s-.07.04-.13.04c-.04,0-.07,0-.11,0-.85.23-2.05.43-3.35.59l.23.13c-.05.06-.14.08-.26.08-.42.58-1.1,1.4-1.67,1.99.47.35.9.7,1.2,1.01.83-.84,1.63-1.76,2.21-2.54l.86.46c-.04.06-.14.08-.28.08-.84,1.03-2.09,2.35-3.21,3.37,1.15-.02,2.4-.05,3.63-.08-.36-.46-.75-.91-1.14-1.31l.62-.3v-.02ZM128.97,195.36c.72.74,1.51,1.76,1.85,2.46-.35.2-.52.29-.67.37-.32-.7-1.1-1.75-1.81-2.51.52-.25.58-.29.64-.32h-.01Z"/>
            <path class="cls-1" d="M137.46,188.19c-.02.14-.17.2-.4.22-.13.67-.35,1.83-.49,2.55.54-.06,1.03-.11,1.33-.11,1.82-.02,2.45,1.19,2.45,2.99,0,.9-.17,1.97-.41,2.69-.37,1.22-1.14,1.81-2.13,1.81-.49,0-1.14-.2-2.17-1.04.13-.22.23-.48.32-.73.96.74,1.46.91,1.83.91.68,0,1.09-.43,1.33-1.2.25-.74.38-1.85.38-2.46,0-1.37-.46-2.18-1.66-2.17-.36,0-.85.05-1.46.12-.6,2.45-1.31,4.55-2.46,6.48l-.79-.38c1.16-1.86,1.82-3.72,2.39-6-.61.07-1.49.18-2.13.29l-.07-.84c.59-.07,1.57-.18,2.37-.28.18-.88.37-1.96.52-3.01l1.25.17h0ZM140.24,187.82c.58.44,1.26,1.16,1.61,1.68l-.47.34c-.34-.52-1.06-1.27-1.58-1.67l.44-.35h0ZM142.92,194.8c-.4-1.73-1.34-3.18-2.45-4.09l.7-.47c1.19,1,2.22,2.5,2.61,4.23l-.86.32h0ZM142.05,187.35c.59.43,1.27,1.15,1.62,1.67l-.47.35c-.33-.52-1.05-1.28-1.58-1.68l.43-.34h0Z"/>
            <path class="cls-1" d="M149.68,192.94c-.23-.41-.49-.83-.75-1.19l.61-.29c.56.76,1.16,1.78,1.39,2.43l-.65.31c-.06-.19-.16-.42-.28-.66l-1.31.07v5.13h-.73v-5.1c-.68.02-1.31.06-1.8.07,0,.1-.08.13-.17.16l-.22-.9h.89c.26-.31.55-.67.83-1.06-.37-.54-1.02-1.24-1.59-1.74l.41-.53c.12.1.24.2.36.32.42-.71.91-1.68,1.19-2.37l.88.37c-.05.07-.12.1-.25.1-.34.7-.89,1.68-1.34,2.35.31.31.59.62.78.9.54-.8,1.06-1.66,1.43-2.35l.85.41c-.05.06-.14.1-.28.1-.62,1.02-1.61,2.45-2.47,3.49l2.23-.04v.02ZM147.45,194.75c-.02.07-.1.12-.23.12-.17,1.02-.44,2.17-.82,2.88-.16-.11-.42-.23-.6-.31.35-.67.61-1.82.77-2.91l.88.23h0ZM150.03,197.08c-.11-.65-.44-1.64-.79-2.39l.62-.2c.36.75.71,1.71.84,2.36l-.67.23ZM157.1,190.06h-2.95v2.01h2.59v.74h-5.95v-.74h2.54v-2.01h-2.79v-.74h2.79v-1.7l1.06.06c0,.1-.08.16-.24.17v1.48h2.95v.74h0ZM151.15,198.73v-4.56h5.24v4.52h-.78v-.48h-3.71v.52h-.75ZM155.61,194.92h-3.71v2.57h3.71v-2.57Z"/>
            <path class="cls-1" d="M158.8,193.5c.5-.48,1.74-1.79,2.38-2.47.92-1.02,1.38-1.25,1.98-1.25.72,0,1.24.46,2.3,1.73.85,1.03,2.82,3.23,4.52,4.79l-.63.74c-1.64-1.49-3.6-3.73-4.32-4.63-1.02-1.25-1.39-1.73-1.88-1.73s-.85.4-1.58,1.22c-.41.47-1.38,1.54-1.89,2.11,0,.16-.04.28-.13.34l-.73-.85h-.02ZM166.31,188.78c.67.49,1.27,1.13,1.64,1.68l-.46.37c-.35-.53-.95-1.2-1.59-1.68l.41-.37ZM167.78,187.7c.67.5,1.25,1.08,1.62,1.65l-.44.38c-.37-.56-.97-1.19-1.58-1.64l.41-.4h0Z"/>
            <path class="cls-1" d="M175.39,192.88c.79-.41,2.03-.7,2.97-.7,1.91,0,3.11,1.12,3.11,2.88,0,2.17-1.91,3.37-4.32,3.37-1.56,0-2.63-.62-2.63-1.68,0-.89.88-1.61,1.97-1.61,1.36,0,2.27,1.08,2.45,2.17.96-.36,1.66-1.13,1.66-2.24,0-1.3-.96-2.12-2.47-2.12-1.8,0-3.56.8-4.35,1.57-.36.34-.83.84-1.15,1.21l-.61-.61c1.08-1.13,4.51-4.4,6.14-5.92-.7.1-3.09.19-4.46.24-.04.08-.16.16-.25.18l-.1-1.02c1.62,0,4.71-.13,5.59-.26l.18-.08.64.78c-.06.05-.17.1-.29.11-.85.7-3.13,2.83-4.07,3.73h0ZM177.05,197.68c.36,0,.78-.05,1.09-.12-.13-.92-.82-1.7-1.7-1.7-.62,0-1.18.34-1.18.89,0,.73,1,.94,1.79.94h0Z"/>
            <path class="cls-1" d="M187.86,197.08c0,.92-.75,1.68-1.68,1.68s-1.68-.76-1.68-1.68.75-1.68,1.68-1.68,1.68.78,1.68,1.68ZM187.43,197.08c0-.7-.55-1.25-1.25-1.25s-1.24.55-1.24,1.25.55,1.23,1.24,1.23,1.25-.58,1.25-1.23Z"/>
          </g>
        </g>
        <g id="_展開">
          <path class="cls-1" d="M126.85,30.93c-.02-3.03-2.64-5.98-4.21-7.47l-.05-.05.05-.05,5.9-5.75-.3-.46c-3.57-5.48-7.25-9.6-10.09-11.3-2.3-1.38-4.37-1.73-5.82-.99-.25.13-.48.29-.68.48l-.05.04h0l-6.69,6.26c-.95,1-1.41,2.33-1.32,3.82.16,2.55,1.86,5.51,4.56,7.93l.05.05-6.38,6.03.32.57c3.21,5.97,6.36,8.9,8.44,10.31,1.37.93,3,1.44,4.57,1.44.78,0,1.51-.13,2.17-.38.5-.19.94-.45,1.31-.78l.05-.04h0l6.55-6.12c1.08-.97,1.62-2.16,1.61-3.55h0ZM122.19,11.28l.05.05c1.49,1.72,3.02,3.75,4.55,6.05l.03.05-5.28,5.15-.04-.03c-2.01-1.33-3.76-3.15-5.19-5.41l-.03-.05,5.92-5.81h-.01ZM120.39,23.43l-.08.05c-1.84,1.3-3.48,3-4.85,5.04l-.06.08-.06-.08c-1.37-2.05-3-3.74-4.85-5.04l-.08-.05.08-.05c1.85-1.3,3.48-3,4.85-5.04l.06-.08.06.08c1.37,2.05,3,3.74,4.85,5.04l.08.05ZM111.91,7.89c.06-.67.26-1.19.62-1.54.13-.12.26-.22.41-.3,1.01-.52,2.65-.17,4.52.95,1.12.67,2.4,1.76,3.79,3.24l.04.05-.05.05-5.83,5.71-.05-.05c-2.52-2.65-3.69-5.38-3.46-8.11h.01ZM104.93,15.39c-.07-1.12.25-2.06.94-2.8l4.68-4.38v.16c-.07,2.96,1.27,5.88,3.97,8.68l.04.04-.03.04c-1.44,2.28-3.2,4.11-5.23,5.44l-.04.03-.04-.03c-2.51-2.19-4.15-4.94-4.29-7.17h0ZM107.91,36.16c-1.53-1.73-3.01-3.87-4.38-6.37l-.02-.05,5.78-5.46.04.03c2.01,1.33,3.76,3.15,5.2,5.41l.03.05-6.6,6.44s-.05-.05-.05-.05ZM118.41,38.59c-.1.39-.3.73-.61,1.01l-.05.05c-.25.22-.55.39-.9.52-.51.19-1.08.29-1.68.29-1.27,0-2.67-.42-3.83-1.21-.79-.54-1.6-1.21-2.41-2.02l-.05-.05,6.53-6.37.05.05c.91.97,3.8,4.39,2.96,7.73h0ZM124.33,33.49l-4.44,4.16v-.16c.04-2.43-1.31-5.3-3.59-7.68l-.04-.04.03-.04c1.44-2.27,3.19-4.1,5.21-5.43l.04-.03.04.04c.92.85,3.9,3.85,3.92,6.63,0,1-.38,1.84-1.18,2.55h.01Z"/>
        </g>
      </g>
    </g>
  </g>
</svg>