<?xml version="1.0" encoding="UTF-8"?>
<svg xmlns="http://www.w3.org/2000/svg" version="1.1" viewBox="0 0 232.44 201.26">
  <defs>
    <style>
      .cls-1 {
        fill: #fff;
      }
    </style>
  </defs>
  <!-- Generator: Adobe Illustrator 28.7.10, SVG Export Plug-In . SVG Version: 1.2.0 Build 236)  -->
  <g>
    <g id="_レイヤー_1" data-name="レイヤー_1">
      <g>
        <g id="_レイヤー_1-2" data-name="_レイヤー_1">
          <g>
            <path class="cls-1" d="M106.27,68.24v2.48l1.36-.4c0,.06.02.12.08.58-1.16.37-2.39.77-3.16,1,0,.08-.07.13-.13.15l-.27-.74c.41-.1.91-.24,1.47-.4v-2.67h-1.24v-.63h1.24v-2.25h-1.34v-.64h3.3v.64h-1.31v2.25h1.21v.63h-1.21ZM110.81,72.43h2.8v.62h-6.43v-.62h3v-1.55h-2.34v-.61h2.34v-1.17h-2.28v-4.44h5.25v4.44h-2.34v1.17h2.48v.61h-2.48s0,1.55,0,1.55ZM108.51,65.25v1.34h1.67v-1.34h-1.67ZM108.51,68.51h1.67v-1.36h-1.67v1.36ZM112.51,66.59v-1.34h-1.71v1.34h1.71ZM112.51,68.51v-1.36h-1.71v1.36h1.71Z"/>
            <path class="cls-1" d="M119.6,66.11c0,.88-.16,1.98-.54,2.63l-.53-.27c.34-.58.5-1.6.52-2.44l.55.08ZM120.03,64.07l.86.06c-.01.07-.07.12-.2.13v9.08h-.66v-9.27ZM121.31,65.65c.33.49.68,1.13.83,1.53l-.49.33c-.15-.42-.5-1.1-.81-1.6,0,0,.47-.26.47-.26ZM125.14,72.35h2.69v.65h-6.23v-.65h2.87v-2.43h-2.13v-.62h2.13v-2.21h-1.56c-.2.62-.43,1.18-.69,1.61-.13-.1-.38-.24-.54-.31.53-.88.93-2.39,1.17-3.85l.83.19c-.02.07-.09.11-.21.11-.1.53-.22,1.08-.37,1.61h1.37v-2.38l.87.06c0,.07-.06.12-.2.14v2.18h2.39v.64h-2.39v2.21h2.08v.62h-2.08s0,2.43,0,2.43Z"/>
            <path class="cls-1" d="M21.73,93.16c-.15,0-.31-.02-.66-.04-.4.24-.84.53-2.07,1.08,1.63.55,2.62,1.19,2.62,2.38,0,.84-.73,1.23-1.21,1.23-.64,0-.84-.44-1.23-1.39-.09-.18-.51-1.14-1.58-2.4l.04-.2c.35.09.46.11,1.06.29.2-.51.55-1.56.64-2.02H5.98c.11,1.85-.59,3.24-1.85,3.24-.62,0-1.23-.48-1.23-1.17,0-.46.31-.84.66-1.14.92-.75,1.25-1.03,1.98-2.31l.2.07c.07.24.11.4.18.79h2.51c-.22-.18-.26-.35-.44-1.1-.02-.07-.18-.73-.55-1.34-1.83.04-2.38-.02-2.95-.09v-.18c4.75-.46,11.02-2,12.76-3.06l2.29,1.39c.15.09.31.24.31.37,0,.18-.24.29-.4.29-.11,0-.62-.04-.73-.04-.44.11-.64.15-1.41.31l1.78.79c.2.09.33.24.33.37,0,.29-.48.42-.77.46-.97.84-2.33,1.72-2.49,1.83h3.08l.7-.73c.13-.15.31-.33.44-.33s.29.15.46.31l1.54,1.41c.22.22.31.33.31.46,0,.48-.66.48-.97.48h0ZM20.41,106.3c-3.63-.68-5.85-1.8-6.91-2.53-2.46,1.34-5.92,2.53-9.37,2.42v-.2c2.88-.53,5.57-1.72,7.97-3.37-.33-.33-.88-.88-1.72-2.11-1.98,1.76-4.27,3.17-6.8,3.94l-.09-.13c3.76-2.4,5.81-5.74,6.2-6.62-.64-.33-.84-.81-.84-1.5-.02-2.2-.02-2.44-.15-3.3l2.4.57c.22.04.48.18.48.37,0,.26-.4.42-.62.51-.02,1.43-.02,1.56.33,1.63.18.02,1.65.02,1.91.02,2.09,0,2.27,0,2.93-1.91h.18c.04.2.26,1.41.64,1.63.57.33.7.42.7.64,0,.42-.37,1.01-.95,1.23-.79.31-1.56.31-5.06.29l.73.4c.13.07.29.22.29.33,0,.24-.24.29-.81.44-.29.31-.33.37-.46.48h3.76l1.12-.84c.13-.11.31-.24.46-.24.09,0,.31.11.42.2l1.45,1.14c.29.22.35.31.35.42,0,.33-.31.37-1.43.53-.4.46-.9,1.01-2.29,1.98,1.78.66,3.65,1.08,5.57,1.08.7,0,1.19-.04,1.58-.09v.2c-1.32.7-1.83,1.74-1.98,2.4h0ZM5.76,98.29c-.64,0-1.28-.46-1.28-1.12,0-.55.31-.77,1.08-1.34.29-.22.97-.79,1.58-2.05h.18c.09.33.24.77.24,1.61,0,.73-.11,2.9-1.8,2.9ZM11.94,90.28c-.04-.2-.22-.84-.62-1.41-.62.07-2.31.18-3.01.22,1.5.33,1.96,1.23,1.96,1.58,0,.13-.02.51-.44.88h2.77c-.48-.29-.53-.57-.66-1.28h0ZM10.86,100.05c-.04.07-.07.09-.18.2.35.31,1.03.88,2.49,1.58.31-.26,1.17-.95,1.83-1.78,0,0-4.14,0-4.14,0ZM13.77,95.27c-.79,0-1.01-.68-1.23-1.3-.2-.62-.55-1.19-.99-1.67l.07-.15c1.28.2,3.23.55,3.23,2.02,0,.73-.64,1.1-1.08,1.1ZM12.18,88.8c1.96.55,2.05,1.47,2.05,1.72,0,.15-.09.75-.57,1.03h1.69c1.03-1.91,1.25-3.01,1.3-3.34-1.58.29-3.39.48-4.47.59Z"/>
            <path class="cls-1" d="M27.56,96.33c-.33,0-1.08-.18-1.08-1.06,0-.26.07-.35.57-1.23.75-1.25.9-1.98.97-2.9h.13c.22.35.92,1.43.92,2.93,0,.95-.37,2.27-1.52,2.27h.01ZM33.7,93.12c-.68,0-.88-.7-1.01-1.17-.07-.22-.31-1.03-.97-1.76,0,1.54-.02,6.8-.02,8.32,0,1.69.09,4.42.09,6.12,0,.55,0,1.63-1.54,1.63-.57,0-.84-.2-.84-.92,0-.88.13-2.27.15-3.15.07-1.78.07-6.97.07-9,0-5.39-.11-5.92-.33-7l2.79.64c.35.09.53.18.53.35,0,.31-.48.55-.88.7,0,.26,0,1.36-.02,2.05.35.02,3.04.48,3.04,2.07,0,.77-.75,1.12-1.06,1.12ZM46.42,94.3h-10.03c-1.34,0-1.83.04-2.38.15l-.35-.81c1.34.11,2.88.13,3.12.13h1.98c0-.37-.02-.92-.02-2.05h-.84c-1.34,0-1.83.07-2.38.15l-.35-.81c1.34.13,1.87.13,2.11.13h1.45v-1.85h-1.76c-1.34,0-1.83.07-2.38.15l-.37-.81c1.34.13,2.9.13,3.15.13h1.34c-.07-1.3-.29-2.05-.48-2.62l3.15.68c.24.04.33.13.33.31,0,.22-.09.24-.81.59v1.03h2.22l.81-1.19c.13-.2.22-.29.33-.29s.2.07.4.24l1.45,1.19c.11.09.22.22.22.35,0,.2-.18.22-.33.22h-5.1v1.85h1.21l.75-1.06c.11-.15.22-.24.31-.24.11,0,.2.09.4.24l1.3,1.03c.15.11.24.22.24.33,0,.2-.2.22-.35.22h-3.85v2.05h2.73l.81-1.21c.13-.18.22-.29.35-.29.11,0,.22.07.4.24l1.34,1.21c.15.13.22.22.22.33,0,.2-.18.24-.33.24v.04ZM44.66,97.34c0,.97.04,5.24.04,6.1,0,1.19,0,2.49-2.97,2.95-.11-.7-.24-1.58-1.87-2.73v-.18c.31.02,1.63.13,1.89.13.75,0,.77-.13.79-2.13h-5.13c0,.57.04,3.12.04,3.63,0,.68-.57,1.17-1.41,1.17-.59,0-.92-.2-.92-.73,0-.09,0-.31.04-.66.13-1.21.13-4.75.13-6.14,0-1.76-.07-2.64-.24-3.65l2.46.95h4.71l.73-.81c.2-.22.26-.26.37-.26.09,0,.18.07.44.26l1.32,1.01c.24.18.29.26.29.35,0,.26-.42.53-.73.75h.02ZM42.54,96.57h-5.13v1.85h5.13v-1.85ZM42.54,98.95h-5.13v2h5.13v-2Z"/>
            <path class="cls-1" d="M55.44,99.23c-.29,1.52-.4,2.71-.4,3.19,0,.26.15,1.45.15,1.69,0,.48-.13,1.06-.86,1.06-1.34,0-2.62-2.11-2.62-6.65,0-1.03.02-2.49.95-6.97.11-.59.2-1.23.2-1.61,0-.7-.15-1.34-1.01-2.27.15-.04.29-.09.53-.09,1.19,0,3.06,1.45,3.06,2.82,0,.35-.11.7-.46,1.39-.95,1.83-1.76,3.39-1.76,5.96,0,.37.09,2.42.53,2.42.2,0,.2-.04.68-1.1,1.25-2.77,1.56-3.3,1.85-3.81l.15.04c-.13.64-.88,3.34-.99,3.92h0ZM65.47,103.39c-4.44,0-7.06-1.03-7.06-3.74,0-.99.31-1.39.44-1.58.26,1.58.79,3.04,4.71,3.04,1.06,0,1.78-.09,2.68-.22.24-.02.48-.04.57-.04.99,0,1.78.7,1.78,1.36,0,1.19-1.74,1.19-3.12,1.19h0ZM66.04,91.64c-2.71.44-4.05,1.5-4.33,1.74l-.13-.11c.24-.33,1.69-1.8,1.69-2,0-.29-.51-.29-.7-.29-1.01,0-2.55.4-4.05,1.08.97-1.8,3.94-2.95,6.45-2.95,1.14,0,2.75.4,2.75,1.5,0,.66-.64.88-1.67,1.03h0Z"/>
            <path class="cls-1" d="M87.91,104.23c-.51,0-.79-.24-2.35-1.41-1.08-.81-1.91-1.14-2.4-1.34-.18,1.98-.92,3.54-4.09,3.54-1.69,0-4.18-.84-4.18-2.64,0-2.46,3.52-3.04,6.03-3.04-.11-.62-.22-1.19-.22-4.12,0-.75.04-4.4.04-4.66,0-1.01,0-2.11-2.2-2.38.26-.31.79-.9,1.98-.9.99,0,2.9.53,2.9,1.61,0,.24-.02.33-.26,1.19-.26.9-.35,1.47-.42,1.83,1.1-.18,2.53-.7,3.21-.95.42-.15.68-.24.99-.24.64,0,1.47.48,1.47,1.17,0,.81-1.1,1.1-1.34,1.17-1.43.4-2.66.4-2.82.4-.35,0-.88-.02-1.65-.51-.07.68-.13,1.45-.13,2.42,0,1.98.26,3.5.4,4.18,4.49.75,6.01,2.38,6.01,3.41,0,.68-.29,1.28-.97,1.28h0ZM79.46,100.8c-.26,0-3.5.07-3.5,1.32,0,.79,1.19,1.06,2.24,1.06,2.42,0,2.71-1.06,2.75-2.22-.37-.07-.75-.15-1.5-.15h.01Z"/>
            <path class="cls-1" d="M104.26,104.98c-2.46,0-4.62-1.06-4.62-2.93,0-1.58,1.74-2.27,2.88-2.27,1.03,0,2.86.57,3.37,2.95,1.34-.33,2.46-2,2.46-3.7s-1.06-3.17-3.17-3.17c-3.96,0-6.23,3.48-7.42,5.3-.26.42-.66,1.03-1.21,1.03-.68,0-1.01-.75-1.01-1.43,0-.86.48-1.34,1.63-2.46.95-.92,1.45-1.56,5.35-6.42.73-.9,1.61-2,1.87-2.44.07-.09.11-.22.11-.29,0-.09-.04-.18-.2-.18-.42,0-3.37,1.58-3.5,1.69-.35.26-.55.4-.84.4-.81,0-1.98-.84-1.98-2.16,0-.48.18-1.01.44-1.39.46.79.81,1.23,1.67,1.23,1.12,0,3.37-.73,4-.97.2-.07.92-.35,1.08-.35.88,0,2.2,1.08,2.2,1.78,0,.55-.2.68-1.32,1.45-.81.55-4.69,4.4-5.5,5.88,1.32-.68,2.88-1.43,5.06-1.43,4.03,0,5.17,2.77,5.17,4.36,0,2.51-2.31,5.5-6.54,5.5l.02.02ZM101.67,100.88c-.42,0-1.06.29-1.06.95,0,1.28,2.38,1.63,2.86,1.63.37,0,.53-.04.75-.09-.57-2.07-2-2.49-2.55-2.49Z"/>
            <path class="cls-1" d="M123.01,88.61c-.35.75-.81,1.69-1.58,3.04l.77.31c.22.09.33.18.33.31,0,.24-.4.57-.64.77-.02,1.08-.04,2.09-.04,3.7,0,2.64.07,5.24.13,7.22,0,.33.02.9.02,1.01,0,.68-.29,1.43-1.5,1.43-.86,0-1.01-.42-.99-.79.02-.24.02-.81.04-1.1.13-2.16.13-3.81.2-10.23-.81,1.1-2.05,2.71-3.48,4l-.13-.13c2.44-3.5,4.14-9.42,4.25-9.88.11-.37.31-1.14.33-2.24l2.97,1.47c.15.07.37.18.37.42,0,.29-.31.42-1.06.7h.01ZM136.15,91.36h-10.76c-1.34,0-1.83.07-2.38.15l-.35-.81c1.34.13,2.88.13,3.12.13h7.08l.92-1.39c.13-.2.22-.29.33-.29s.18.04.4.22l1.74,1.41c.11.09.22.2.22.35,0,.2-.18.22-.33.22h0ZM134.61,100.93c.02.75.13,3.54.13,4.14,0,.9-.81,1.19-1.63,1.19-.77,0-.77-.35-.75-1.47h-5.77c0,.53.02,1.43-1.54,1.43-.81,0-.81-.44-.81-.88,0-.57.13-3.08.13-3.61,0-1.72-.11-2.38-.2-3.06l2.53.95h5.59l.66-.84c.09-.11.22-.22.33-.22.13,0,.24.09.44.24l1.36.99c.11.09.26.22.26.37,0,.24-.26.42-.75.77h.02ZM134.21,88.5h-7c-1.34,0-1.83.04-2.38.15l-.35-.81c1.34.11,2.88.13,3.12.13h3.41l.9-1.32c.09-.13.2-.26.33-.26.11,0,.18.04.42.24l1.65,1.3c.11.09.22.2.22.33,0,.22-.2.24-.33.24h.01ZM134.08,94.17h-6.82c-1.34,0-1.83.04-2.38.13l-.35-.79c1.32.11,2.88.13,3.12.13h3.5l.79-1.25c.07-.11.18-.29.33-.29.11,0,.2.09.4.24l1.52,1.25c.11.09.22.18.22.33,0,.2-.18.24-.33.24h0ZM134.19,97.06h-6.87c-1.36,0-1.83.07-2.4.15l-.35-.81c1.34.13,2.9.13,3.15.13h3.48l.79-1.28c.11-.18.2-.29.33-.29.11,0,.2.07.4.24l1.58,1.3c.11.09.22.18.22.33,0,.2-.18.22-.33.22h0ZM132.36,100.14h-5.79v4.11h5.79v-4.11Z"/>
            <path class="cls-1" d="M150.25,89.64h-3.74v2.6h1.12l.59-.77c.11-.13.22-.24.35-.24.11,0,.22.07.44.24l1.12.86c.22.18.22.29.22.35,0,.22-.11.37-.59.7,0,.57.04,3.06.04,3.56,0,.81-.48,1.17-1.25,1.17s-.73-.53-.7-1.06h-1.32v1.52c1.74.18,3.28,1.08,3.28,2.29,0,.62-.37,1.19-1.08,1.19-.55,0-.77-.33-1.19-1.23-.46-1.03-.73-1.5-1.01-1.78,0,.84,0,2.05.04,3.85,0,.33.07,1.72.07,2,0,1.17-1.23,1.23-1.45,1.23-.66,0-.73-.31-.73-.81,0-.02.07-4.27.09-4.82-.15.2-2.35,2.79-4.29,3.81l-.11-.13c1.87-2.18,3.72-5.83,4.12-7.11h-.97c.02.79.07,1.54-1.12,1.54-.44,0-.77-.15-.77-.77,0-.09.09-2.57.09-3.06,0-.26,0-2.44-.22-3.5l2.13.97h1.19l-.04-2.6h-1.19c-1.34,0-1.83.07-2.38.15l-.35-.81c1.32.13,2.88.13,3.12.13h.79c-.04-1.72-.04-1.91-.29-2.99l2.49.53c.24.04.51.11.51.35,0,.2-.09.24-.75.66v1.45h1.01l.84-1.08c.15-.2.2-.29.33-.29s.31.15.42.24l1.25,1.08c.13.11.22.2.22.35,0,.2-.18.22-.33.22h0ZM143.28,92.76v3.76h1.3c.02-1.25.02-3.15.02-3.76h-1.32ZM147.87,92.76h-1.36c0,.53.02,3.17.02,3.76h1.34v-3.76ZM160.31,88.28h-3.74c-.55.77-.73.97-2.22,2.79h2.68l.57-.7c.09-.11.24-.26.35-.26.15,0,.33.11.46.2l1.43,1.1c.18.13.22.26.22.35,0,.22-.13.4-.77.73v4.31c0,.62.11,3.37.11,3.94,0,.97-.79,1.14-1.39,1.14-.81,0-.81-.55-.81-.86h-3.89c0,.13.02.31-.13.57l1.61.99c.15.09.24.18.24.33,0,.29-.33.31-.95.33-.97.7-2.68,1.87-6.01,2.88l-.09-.15c2.02-1.39,3.57-3.17,4.14-3.92-1.01.13-1.01-.44-1.01-.73,0-1.01.09-5.52.09-6.43,0-2.11-.02-3.01-.2-4.73l2.29.9h.24c.2-1.17.29-2.05.37-2.79h-1.06c-1.34,0-1.83.04-2.38.15l-.38-.81c1.34.11,2.91.13,3.15.13h4.09l.79-1.21c.11-.18.22-.29.33-.29s.33.18.42.24l1.54,1.21c.13.11.22.22.22.33,0,.22-.18.24-.33.24l.02.02ZM157.2,91.6h-3.92v2.57h3.92v-2.57ZM157.2,94.7h-3.92v2.46h3.92v-2.46ZM157.2,97.69h-3.92v2.79h3.92v-2.79ZM159.27,105.86c-.62,0-.73-.18-1.67-1.67-.59-.9-1.3-1.74-2.13-2.42l.09-.15c1.91.37,4.88,1.14,4.88,3.04,0,.84-.66,1.21-1.17,1.21h0Z"/>
            <path class="cls-1" d="M178.68,104.49c-.88.4-3.7.48-4.69.48-1.21,0-5.39-.09-7-1.43-.81-.68-1.21-1.67-1.21-2.51,0-2.97,3.48-5.06,4.51-5.63-.59-.62-.99-1.67-.99-2.62,0-3.41,0-3.67-.13-4.14-.31-1.1-1.67-1.34-2.18-1.43.4-.33.81-.68,1.8-.68,1.1,0,3.37.79,3.37,1.67,0,.09,0,.18-.18.59-.53,1.28-.64,2.68-.64,4.07,0,.64.02,1.25.4,1.76,1.3-.68,2.75-1.3,3.65-1.65.48-.2.77-.37.77-.73,0-.2-.09-.42-.33-.9,1.8.26,2.79,1.36,2.79,2.55,0,.92-.46.97-1.45,1.08-5.57.57-10.41,3.21-10.41,5.68,0,2.13,2.97,2.13,4.47,2.13,2.09,0,3.1-.18,5.1-.53.37-.07.64-.11.88-.11.7,0,2,.4,2,1.43,0,.4-.09.68-.55.9l.02.02Z"/>
            <path class="cls-1" d="M186.88,103.17c-.13.51-.22.77-.48.77-.15,0-.24-.13-.33-.29l-1.5-2.79c.55,0,1.3,0,3.21-.55v-5.59c-1.47,0-1.98.09-2.38.15l-.37-.81c.92.09,1.83.13,2.75.13v-5.26c-1.54,0-1.96.04-2.55.15l-.35-.81c1.03.09,2.09.13,3.12.13h1.83l.73-1.14c.04-.09.22-.29.33-.29.13,0,.2.07.42.26l1.36,1.12c.09.07.22.2.22.33,0,.22-.22.24-.33.24h-2.62v5.26h.18l.7-1.21c.04-.09.18-.26.31-.26.15,0,.31.15.4.24l1.25,1.19c.15.13.22.22.22.35,0,.22-.22.22-.33.22h-2.73v4.95c2.02-.64,2.75-.92,3.28-1.14l.09.18c-1.01.81-2.66,2.13-6.42,4.47h0ZM204.65,105.39h-11.82c-1.34,0-1.83.04-2.38.15l-.35-.81c1.34.11,2.88.13,3.12.13h3.76v-3.98h-1.39c-1.34,0-1.83.04-2.38.15l-.35-.81c1.32.11,2.88.13,3.12.13h.99v-3.7h-1.85c.02.59-.13,1.39-1.3,1.39-.77,0-.77-.51-.77-.84,0-.9.04-4.95.04-5.76,0-3.12,0-3.72-.24-4.82l2.53,1.06h5.5l.66-.88c.13-.18.2-.26.31-.26.13,0,.29.11.37.18l1.5,1.17c.09.07.18.13.18.29,0,.29-.35.53-.64.75,0,.77-.02,1.94.02,3.81,0,.57.11,3.17.11,3.7,0,.88-.79,1.25-1.54,1.25-.86,0-.84-.55-.81-1.01h-1.89v3.7h1.36l.97-1.32c.13-.2.22-.29.35-.29s.31.15.4.22l1.54,1.34c.11.11.22.13.22.33s-.2.24-.33.24h-4.51v3.98h2.18l.97-1.47c.15-.24.26-.29.33-.29.13,0,.33.18.42.24l1.69,1.47c.13.11.22.2.22.33,0,.2-.18.24-.33.24h.02ZM197,88.21h-1.87v3.63h1.87v-3.63ZM197,92.37h-1.87v3.76h1.87v-3.76ZM201.09,88.21h-1.91v3.63h1.91v-3.63ZM201.09,92.37h-1.91v3.76h1.91v-3.76Z"/>
            <path class="cls-1" d="M216.72,91.91l.73-.68c.09-.09.22-.2.31-.2.11,0,.22.09.33.18l1.25.95c.15.11.26.2.26.35,0,.26-.31.46-.66.73v.29c0,1.28.04,7.48.04,8.87,0,1.67,0,2.29-.7,2.95-.86.81-1.85.92-2.27.99-.37-1.41-1.03-2.16-2.4-2.84l.02-.18c.77.09,1.63.15,2.44.15.9,0,.9-.35.9-.95v-3.08h-4.22c-.29,3.52-1.61,5.28-3.78,6.78l-.15-.11c2.02-3.17,2.02-4.53,1.98-13.31-.86.99-1.43,1.45-1.87,1.8l-.15-.11c2.51-3.92,3.01-7.19,3.01-7.85,0-.15-.04-.48-.09-.66l2.84,1.03c.22.09.46.22.46.42,0,.26-.33.4-.9.57-.15.31-.18.33-.44.79h1.23l.81-.75c.09-.09.18-.13.29-.13.13,0,.26.07.37.15l1.12.84c.29.22.37.35.37.55,0,.29-.2.35-.57.46-.42.13-.46.15-.57.24-.7.59-1.65,1.39-2.13,1.76h2.14ZM214,91.91c.62-1.52.75-2.16.86-2.6h-1.52c-.26.44-.75,1.21-1.36,2.02l1.03.57h.99ZM213.95,95.87h-1.14v2.22c0,.51,0,.57-.02.81h1.17v-3.04h0ZM212.81,92.43v2.9h1.14v-2.9h-1.14ZM215.69,92.43v2.9h1.3v-2.9h-1.3ZM216.99,95.87h-1.3v3.04h1.3v-3.04ZM225.72,87.53l.66-.75c.09-.11.15-.15.24-.15.11,0,.29.15.37.22l1.41,1.06c.13.09.24.24.24.37s-.04.35-.73.73c-.18,3.67-1.39,4.38-3.12,4.58-.13-.88-.57-1.89-1.69-2.53l.07-.15c1.08.2,1.52.2,1.56.2.55,0,.97,0,1.01-3.04h-2.02c-.22,2.86-1.47,4.6-4.33,6.27l-.13-.13c.57-.73,1.98-2.46,2.2-6.12-1.21-.02-1.8.09-2.07.13l-.4-.81c.62.07,1.8.13,3.17.13h3.56ZM225.59,93.93c.15.02.42.11.42.31,0,.22-.22.4-.75.68v1.76h.44l.99-1.23c.07-.09.22-.29.35-.29s.26.15.37.26l1.17,1.21c.07.09.22.22.22.33,0,.22-.2.24-.33.24h-3.21c0,.66.02,2.07.02,3.08h.77l.95-1.12c.15-.18.22-.26.35-.26s.26.11.37.22l1.17,1.12c.15.15.22.24.22.35,0,.22-.2.22-.33.22h-3.5c.02.66.11,3.5.11,4.07,0,.53,0,1.54-1.34,1.54-.9,0-.9-.48-.9-1.06,0-.73.07-3.89.09-4.55h-1.12c-1.34,0-1.83.07-2.38.15l-.35-.81c1.03.11,2.09.13,3.12.13h.73v-3.08h-1.78c-.79,1.36-1.78,2.44-2.13,2.84l-.15-.09c.97-2.42,1.25-4.6,1.21-5.94l2.11.75c.18.07.33.11.33.29,0,.09,0,.2-.53.46-.2.51-.33.75-.55,1.17h1.47c0-1.8-.04-2.49-.33-3.28l2.71.53h-.01Z"/>
            <path class="cls-1" d="M4.33,131.02v2.89c0,1.87-.13,4.58-1.09,6.43-.13-.14-.47-.37-.66-.44.91-1.76.98-4.21.98-5.99v-3.62h4.62v-1.13l1.07.07c-.01.08-.07.14-.24.17v.89h4.69v.73H4.33ZM4.76,136.01v-.67h8.95v.67h-5.17c-.24.37-.55.76-.91,1.13h5.35v3.15h-.78v-.38h-4.74v.41h-.74v-2.34c-.62.49-1.31.95-2.01,1.29-.11-.17-.32-.44-.48-.58,1.34-.62,2.65-1.63,3.39-2.69h-2.86ZM9.07,132.68h-1.7v.14c.36.19,1.4.84,1.65,1.01l-.42.54c-.23-.22-.79-.65-1.24-.96v1.51h-.66v-1.68c-.5.61-1.14,1.17-1.72,1.5-.1-.16-.3-.37-.44-.49.66-.31,1.42-.94,1.91-1.57h-1.6v-.61h1.85v-.91l.89.07c-.01.07-.07.13-.23.14v.7h1.7v.61h.01ZM12.2,139.28v-1.51h-4.74v1.51h4.74ZM13.64,132.68h-1.64c.49.59,1.26,1.19,1.88,1.5-.14.12-.36.36-.47.52-.54-.32-1.19-.91-1.68-1.49v1.78h-.67v-1.75c-.5.61-1.15,1.19-1.73,1.51-.11-.16-.3-.37-.44-.49.66-.31,1.42-.94,1.91-1.57h-1.38v-.61h1.64v-.91l.9.06c-.01.08-.07.13-.23.16v.7h1.91v.61-.02Z"/>
            <path class="cls-1" d="M20.25,129.73c-.02.14-.17.2-.4.22-.13.67-.35,1.83-.49,2.55.54-.06,1.03-.11,1.33-.11,1.82-.02,2.45,1.19,2.45,2.99,0,.9-.17,1.97-.41,2.69-.37,1.22-1.14,1.81-2.13,1.81-.49,0-1.14-.2-2.17-1.04.13-.22.23-.48.32-.73.96.74,1.46.91,1.83.91.68,0,1.09-.43,1.33-1.2.25-.74.38-1.85.38-2.46-.01-1.37-.46-2.18-1.65-2.17-.36,0-.85.05-1.46.12-.6,2.45-1.31,4.55-2.46,6.48l-.79-.38c1.16-1.86,1.82-3.72,2.39-6-.61.07-1.49.18-2.13.29l-.07-.84c.59-.07,1.57-.18,2.37-.28.18-.88.37-1.96.52-3.01l1.25.17h-.01ZM25.8,135.5c-.38-1.75-1.52-3.24-2.7-4.1l.65-.5c1.27.9,2.53,2.55,2.91,4.27l-.86.34h0Z"/>
            <path class="cls-1" d="M28.64,131.9c.97,0,1.86-.08,2.25-.18.02-.72.04-1.12.08-2.21l1.24.1c-.02.13-.13.22-.34.24-.05.53-.1,1.27-.12,1.71l.37.14c-.29.58-.41,1.28-.48,1.71,1.32-1.24,2.78-2.11,3.78-2.11,1.13,0,1.69.79,1.69,2.18,0,.16,0,.31-.02.47-.08,1.05-.2,2.55-.2,3.51,0,.72.08,1.1.59,1.1.36,0,1.08-.36,1.6-.8.02.24.12.73.17.91-.61.44-1.33.78-1.88.78-1.01,0-1.34-.6-1.34-1.85,0-.62.22-3.92.22-3.93,0-1.04-.36-1.51-.95-1.51-.9,0-2.41.97-3.66,2.29,0,1.74,0,3.87.01,5.51h-.84c.01-.7,0-4.11.01-4.88-.42.84-1.24,1.93-2.18,2.89l-.43-.76c1-.94,2.11-2.39,2.64-3.62,0-.35.01-.67.02-1.06-.42.1-1.3.19-2.21.2v-.85l-.02.02Z"/>
            <path class="cls-1" d="M48.26,131.78c-1.02.36-2.37.59-3.68.68-.5,2.75-1.24,5.48-2.19,7.5l-.86-.32c.98-1.93,1.7-4.41,2.17-7.14-.24,0-1.85.02-2.21,0v-.82c.18,0,.43,0,.71,0,.11,0,1.31,0,1.62,0,.12-.77.24-1.61.31-2.34l1.24.12c0,.13-.18.23-.35.24-.07.53-.19,1.18-.3,1.91,1.18-.11,2.36-.31,3.36-.67l.19.83h-.01ZM51.45,139.77c-.36,0-.73.02-1.1.02-1.13,0-2.19-.08-2.84-.26-.85-.24-1.34-.86-1.33-1.66,0-.53.24-1.13.74-1.74l.72.31c-.42.49-.62.96-.62,1.33,0,.95.91,1.19,3.09,1.19.44,0,.9,0,1.34-.05v.85h0ZM46.78,133.99c1.24-.4,2.94-.65,4.35-.61v.82c-1.36-.04-2.93.16-4.15.54l-.2-.74h0Z"/>
            <path class="cls-1" d="M56.21,134.15v2.97l1.63-.48c0,.07.02.14.1.7-1.39.44-2.87.92-3.79,1.2,0,.1-.08.16-.16.18l-.32-.89c.49-.12,1.09-.29,1.76-.48v-3.2h-1.49v-.76h1.49v-2.7h-1.61v-.77h3.96v.77h-1.57v2.7h1.45v.76s-1.45,0-1.45,0ZM61.66,139.17h3.36v.74h-7.71v-.74h3.6v-1.86h-2.81v-.73h2.81v-1.4h-2.73v-5.33h6.3v5.33h-2.81v1.4h2.97v.73h-2.97v1.86h0ZM58.9,130.56v1.61h2v-1.61h-2ZM58.9,134.47h2v-1.63h-2v1.63ZM63.71,132.17v-1.61h-2.05v1.61h2.05ZM63.71,134.47v-1.63h-2.05v1.63h2.05Z"/>
            <path class="cls-1" d="M68.09,131.59c0,1.06-.19,2.38-.65,3.15l-.64-.32c.41-.7.6-1.92.62-2.93l.66.1h0ZM68.6,129.15l1.03.07c-.01.08-.08.14-.24.16v10.9h-.79v-11.13ZM70.14,131.04c.4.59.82,1.36,1,1.83l-.59.4c-.18-.5-.6-1.32-.97-1.92l.56-.31ZM74.74,139.08h3.23v.78h-7.47v-.78h3.44v-2.91h-2.55v-.74h2.55v-2.65h-1.87c-.24.74-.52,1.42-.83,1.93-.16-.12-.46-.29-.65-.37.64-1.06,1.12-2.87,1.4-4.62l1,.23c-.02.08-.11.13-.25.13-.12.64-.26,1.3-.44,1.93h1.64v-2.85l1.04.07c-.01.08-.07.14-.24.17v2.62h2.87v.77h-2.87v2.65h2.49v.74h-2.49v2.91h0Z"/>
            <path class="cls-1" d="M80.65,136.99c.89.71,2.06,1.89,2.71,2.65l-.72.66c-.6-.77-1.82-2.03-2.63-2.75l.64-.56Z"/>
            <path class="cls-1" d="M97.2,131.35l.53.32s-.08.08-.16.11c-.38.97-.96,1.93-1.62,2.79.52.4,1.57,1.29,1.85,1.54l-.46.68c-.29-.32-.94-.95-1.46-1.43v4.94h-.79v-4.69c-.54.59-1.12,1.12-1.67,1.52-.08-.22-.3-.58-.44-.72,1.38-.92,2.84-2.59,3.65-4.28h-3.27v-.74h1.74v-2.24l1.02.06c-.01.08-.07.14-.23.17v2.01h1.18l.14-.05h0ZM101.37,131.27h2.77v6.04h-.77v-.48h-2v3.47h-.78v-3.47h-1.9v.54h-.74v-6.11h2.64v-2.12l1.01.07c-.01.08-.07.13-.23.16v1.89h0ZM100.59,132.01h-1.9v1.67h1.9v-1.67ZM98.7,136.1h1.9v-1.72h-1.9v1.72ZM103.37,132.01h-2v1.67h2v-1.67ZM101.37,136.1h2v-1.72h-2v1.72Z"/>
            <path class="cls-1" d="M110.78,129.73c-.02.14-.17.2-.4.22-.13.67-.35,1.83-.49,2.55.54-.06,1.03-.11,1.33-.11,1.82-.02,2.45,1.19,2.45,2.99,0,.9-.17,1.97-.41,2.69-.37,1.22-1.14,1.81-2.13,1.81-.49,0-1.14-.2-2.17-1.04.13-.22.23-.48.32-.73.96.74,1.46.91,1.83.91.68,0,1.09-.43,1.33-1.2.25-.74.38-1.85.38-2.46-.01-1.37-.46-2.18-1.65-2.17-.36,0-.85.05-1.46.12-.6,2.45-1.31,4.55-2.46,6.48l-.79-.38c1.16-1.86,1.82-3.72,2.39-6-.61.07-1.49.18-2.13.29l-.07-.84c.59-.07,1.57-.18,2.37-.28.18-.88.37-1.96.52-3.01l1.25.17h-.01ZM116.33,135.5c-.38-1.75-1.52-3.24-2.7-4.1l.65-.5c1.27.9,2.53,2.55,2.91,4.27l-.86.34h0Z"/>
            <path class="cls-1" d="M121.78,131.74c-.05.12-.14.18-.31.2-.1,1.78-.32,3.29-.49,3.54h.01c1.17-.88,3.01-1.48,4.41-1.48,1.85,0,3,.95,2.97,2.63-.04,2.21-1.86,3.19-6.5,3.38-.06-.23-.17-.56-.3-.79,4.19-.18,5.86-.86,5.9-2.58.01-1.15-.79-1.85-2.2-1.85-2.22,0-4.22,1.33-4.56,1.92l-.82-.4c.24-.23.66-2.38.68-4.73l1.19.14.02.02ZM121.98,129.41c1.63.19,3.48.56,4.65,1.06l-.3.83c-1.24-.53-3.02-.88-4.61-1.09l.25-.79h.01Z"/>
            <path class="cls-1" d="M142.09,136.22v.78h-2.34c-.25,1.69-.54,2.51-.92,2.89-.35.35-.7.41-1.48.41-.47,0-1.13-.02-1.79-.07-.02-.24-.13-.58-.29-.79.96.08,1.87.1,2.22.1.31,0,.48-.02.64-.16.31-.26.58-.97.8-2.37h-7.7v-.78h7.81c.08-.54.14-1.15.22-1.86h-5.24c-.06.23-.12.44-.17.65l-.84-.08c.43-1.46.98-3.99,1.31-5.79l1.04.11c-.02.1-.1.14-.25.16-.08.47-.19.98-.31,1.52h6.02v.78h-6.19c-.13.65-.29,1.31-.43,1.91h5.31l.18-.02.48.1c0,.08-.04.17-.05.25-.08.88-.17,1.64-.25,2.29h2.22v-.03Z"/>
            <path class="cls-1" d="M148.07,135.9c.41-.2.8-.28,1.19-.28.61,0,1.06.47,1.06,1.22,0,.31-.04.68-.04.97,0,1.22.72,1.22,1.75,1.22.53,0,1.13-.04,1.56-.11,0,.54.04.85.04.85-.47.05-1.03.07-1.56.07-.49,0-.94-.02-1.25-.07-.86-.13-1.36-.77-1.37-1.48,0-.28.02-.82.02-1.17,0-.5-.19-.79-.61-.79-.58,0-1.46.34-2.15,1-.7.68-2,2-2.41,2.48,0,0-.13-.17-.65-.64,1.14-1.16,4.91-4.82,6.13-6.01-.88.08-3.6.24-4.97.31-.04.07-.1.12-.19.13l-.07-.96c1.68-.05,4.83-.2,6.04-.31l.18-.11.7.64c-.07.06-.16.08-.29.1-.76.71-2.23,2.06-3.12,2.92h0v.02ZM151.08,131.1c-1.28-.37-3.54-.73-5.13-.8l.18-.8c1.66.07,3.81.4,5.18.79l-.23.82h0Z"/>
            <path class="cls-1" d="M157.76,131.74c-.05.12-.14.18-.31.2-.1,1.78-.32,3.29-.49,3.54h0c1.18-.88,3.01-1.48,4.41-1.48,1.85,0,3,.95,2.97,2.63-.04,2.21-1.86,3.19-6.5,3.38-.06-.23-.17-.56-.3-.79,4.19-.18,5.87-.86,5.9-2.58,0-1.15-.79-1.85-2.19-1.85-2.22,0-4.22,1.33-4.56,1.92l-.82-.4c.24-.23.66-2.38.68-4.73l1.19.14v.02ZM157.96,129.41c1.63.19,3.48.56,4.65,1.06l-.3.83c-1.24-.53-3.02-.88-4.61-1.09l.25-.79h.01Z"/>
            <path class="cls-1" d="M167.61,131.9c.97,0,1.86-.08,2.25-.18.02-.72.04-1.12.08-2.21l1.24.1c-.02.13-.13.22-.34.24-.05.53-.1,1.27-.12,1.71l.37.14c-.29.58-.41,1.28-.48,1.71,1.32-1.24,2.78-2.11,3.78-2.11,1.13,0,1.69.79,1.69,2.18,0,.16,0,.31-.02.47-.08,1.05-.2,2.55-.2,3.51,0,.72.08,1.1.59,1.1.36,0,1.08-.36,1.59-.8.02.24.12.73.17.91-.61.44-1.33.78-1.88.78-1.01,0-1.34-.6-1.34-1.85,0-.62.22-3.92.22-3.93,0-1.04-.36-1.51-.95-1.51-.9,0-2.41.97-3.66,2.29,0,1.74,0,3.87,0,5.51h-.84c0-.7,0-4.11,0-4.88-.42.84-1.24,1.93-2.18,2.89l-.43-.76c1-.94,2.11-2.39,2.64-3.62,0-.35,0-.67.02-1.06-.42.1-1.3.19-2.21.2v-.85.02Z"/>
            <path class="cls-1" d="M187.24,131.78c-1.02.36-2.38.59-3.68.68-.5,2.75-1.24,5.48-2.2,7.5l-.86-.32c.98-1.93,1.7-4.41,2.17-7.14-.24,0-1.85.02-2.21,0v-.82c.18,0,.43,0,.71,0,.11,0,1.31,0,1.62,0,.12-.77.24-1.61.31-2.34l1.24.12c0,.13-.18.23-.35.24-.07.53-.19,1.18-.3,1.91,1.17-.11,2.36-.31,3.36-.67l.19.83h0ZM190.43,139.77c-.36,0-.73.02-1.1.02-1.13,0-2.2-.08-2.84-.26-.85-.24-1.34-.86-1.33-1.66,0-.53.24-1.13.74-1.74l.72.31c-.42.49-.62.96-.62,1.33,0,.95.91,1.19,3.09,1.19.44,0,.9,0,1.34-.05v.85h0ZM185.75,133.99c1.24-.4,2.94-.65,4.35-.61v.82c-1.36-.04-2.93.16-4.15.54l-.2-.74h0Z"/>
            <path class="cls-1" d="M195.55,129.42c-.04.08-.12.12-.26.13-.29.71-.71,1.64-1.12,2.4.85-.02,1.8-.06,2.76-.1-.28-.46-.59-.92-.9-1.33l.66-.28c.67.83,1.37,1.94,1.66,2.69l-.7.32c-.08-.22-.19-.47-.34-.73-1.68.12-3.41.2-4.51.25,0,.1-.1.14-.18.17l-.26-.95.98-.02c.44-.82.95-1.98,1.22-2.82l.98.26h0ZM197.49,133.74v5.62c0,.9-.48.94-2,.94-.05-.22-.17-.54-.29-.76.36,0,.68.02.92.02.52,0,.58,0,.58-.22v-1.32h-2.73v2.3h-.76v-6.6h4.28v.02ZM196.7,134.44h-2.73v1.12h2.73v-1.12ZM193.97,137.39h2.73v-1.19h-2.73v1.19ZM202.18,133.73c.49,0,.58-.2.62-1.44.18.14.5.26.74.32-.11,1.46-.35,1.86-1.29,1.86h-2.17c-1.12,0-1.42-.25-1.42-1.19v-4.11l1.03.06c0,.08-.07.14-.23.17v1.87c1.08-.36,2.22-.8,2.93-1.17l.61.66s-.07.04-.12.04c-.04,0-.07,0-.11,0-.82.37-2.12.8-3.31,1.15v1.34c0,.38.1.46.67.46h2.05ZM199.46,138.98c0,.41.12.48.72.48h2.11c.54,0,.62-.24.67-1.63.19.13.52.25.73.31-.1,1.62-.34,2.04-1.34,2.04h-2.24c-1.13,0-1.44-.24-1.44-1.19v-4.16l1.03.06c0,.08-.07.14-.24.17v1.75c1.15-.35,2.39-.84,3.11-1.29l.6.67s-.07.04-.13.04c-.02,0-.06,0-.1,0-.8.46-2.22.94-3.48,1.28v1.49h0Z"/>
            <path class="cls-1" d="M215.26,131.83c.18,0,.2,0,.38,0l.47.05c0,.07,0,.19-.02.28-.18,5.26-.36,7.05-.84,7.6-.34.42-.72.49-1.5.49-.41,0-.92,0-1.42-.05,0-.24-.12-.6-.29-.84.85.07,1.62.08,1.92.08.25,0,.4-.04.53-.18.4-.4.59-2.12.74-6.61h-4.3c-.17,2.54-.98,5.5-4.55,7.7-.13-.2-.43-.5-.62-.64,3.37-2.03,4.16-4.74,4.33-7.06h-3.98v-.82h4.02c0-.22,0-.42,0-.62v-2.04l1.08.07c0,.08-.08.14-.24.17v1.8c0,.2,0,.41,0,.62h4.29,0Z"/>
            <path class="cls-1" d="M228.79,134.29s-.05.02-.07.02c-.07,0-.13-.04-.18-.07-.91.3-2.24.79-3.24,1.22.02.28.04.59.04.94,0,.38,0,.82-.04,1.28l-.88.05c.04-.43.06-.98.06-1.45,0-.18,0-.35,0-.48-1.36.66-2.46,1.46-2.46,2.18s.83,1.03,2.48,1.03c1.16,0,2.24-.02,3.01-.12v.8c-.7.07-1.78.1-3.01.1-2.3,0-3.32-.55-3.32-1.77,0-1.06,1.39-2.08,3.19-2.97-.07-.76-.41-1.13-.89-1.13-.88,0-1.79.49-2.87,1.69-.34.37-.8.84-1.32,1.31l-.59-.59c1.2-1.06,2.33-2.06,3.02-4.43h-2.67s0-.77,0-.77c.73,0,1.58,0,2.07,0h.82c.13-.56.24-1.08.32-1.73l1.17.14c-.02.12-.12.19-.3.22-.08.48-.19.9-.3,1.33.82,0,2.57-.2,4.13-.7l.14.8c-1.5.47-3.31.64-4.5.67-.29.9-.59,1.62-.86,2.03h0c.53-.47,1.32-.78,1.93-.78.82,0,1.33.59,1.49,1.56,1.01-.46,2.28-.95,3.24-1.32l.37.91.02.02Z"/>
            <path class="cls-1" d="M27.13,157.34l.56.36s-.1.1-.17.11c-.58.78-1.37,1.4-2.3,1.9,1.34.47,2.93.75,4.59.89-.17.18-.36.5-.47.72-1.82-.18-3.56-.58-5-1.2-1.48.61-3.21.98-4.99,1.21-.07-.19-.28-.52-.42-.68,1.61-.17,3.2-.46,4.56-.93-.67-.37-1.27-.8-1.75-1.31-.67.46-1.4.85-2.11,1.15-.12-.14-.37-.38-.54-.52,1.42-.54,2.94-1.5,3.83-2.58-.53-.08-.67-.31-.67-.86v-1.24l.98.07c-.01.08-.07.14-.23.16v1.01c0,.24.08.29.61.29h1.88c.4,0,.48-.1.52-.85.16.11.46.19.66.24-.08,1-.3,1.22-1.08,1.22h-2.31l.58.23c-.05.06-.14.1-.26.08-.17.19-.35.38-.55.58h3.95l.14-.04h-.01ZM20.12,153.62v1.32h-.77v-1.99h2.18c-.14-.41-.48-.95-.8-1.34l.32-.13-1.32.04c-.01-.18-.1-.47-.17-.62,3.02-.1,6.74-.34,8.7-.74l.61.61s-.07.04-.12.04c-.04,0-.07,0-.12-.02-1.14.22-2.75.4-4.46.53.3.44.56,1,.66,1.38l-.72.26c-.08-.43-.4-1.08-.72-1.56l.11-.04c-.67.05-1.36.08-2.02.11.35.42.67.94.79,1.32l-.4.18h4.47c.4-.49.89-1.26,1.16-1.77l.89.4c-.04.06-.12.1-.25.1-.24.37-.6.86-.96,1.28h2.15v2.06h-.8v-1.39h-4.76c.61.28,1.32.66,1.69.97l-.43.5c-.4-.34-1.18-.79-1.82-1.08l.36-.4h-3.45v-.02ZM21.67,154.61c-.26.8-.7,1.54-1.58,1.94l-.55-.49c.78-.32,1.26-.97,1.49-1.68l.65.23h-.01ZM22.29,158h0c.52.54,1.22,1,2.05,1.35.82-.36,1.52-.82,2.04-1.35h-4.09ZM28.59,156.48c-.4-.53-1.25-1.32-1.97-1.87l.55-.4c.73.52,1.6,1.27,2,1.81l-.59.46h.01Z"/>
            <path class="cls-1" d="M37.76,152.34c-.05.11-.14.19-.3.19-.43,3.73-1.68,6.98-3.67,6.98-1.01,0-1.92-1.01-1.92-2.9,0-2.88,2.24-5.29,5.4-5.29,3.47,0,4.97,2.2,4.97,4.53,0,2.85-1.66,4.23-4.56,4.91-.11-.19-.31-.52-.5-.73,2.76-.53,4.17-1.87,4.17-4.14,0-1.98-1.27-3.78-4.08-3.78-.12,0-.25,0-.36.02l.85.2h0ZM36.6,152.18c-2.42.3-3.92,2.3-3.92,4.4,0,1.28.55,2.09,1.13,2.09,1.45,0,2.49-3.2,2.79-6.49h0Z"/>
            <path class="cls-1" d="M55.21,152.53h-9.27v2.4c0,1.85-.16,4.54-1.19,6.38-.14-.14-.5-.37-.7-.47.98-1.74,1.08-4.17,1.08-5.91v-3.17h4.52v-1.61l1.07.07c0,.08-.07.14-.24.17v1.37h4.73v.77ZM47.94,156.24c-.18,1.31-.49,2.94-1.13,3.91l-.72-.35c.62-.94.95-2.45,1.12-3.73,0,0,.73.17.73.17ZM49.61,159.99c0,.4.08.47.56.47h1.64c.49,0,.58-.31.62-2.13.18.16.52.29.73.35-.1,2-.31,2.53-1.3,2.53h-1.79c-1.01,0-1.28-.26-1.28-1.21v-4.56l1.04.07c0,.08-.08.14-.24.17v4.32h.02ZM49.56,152.84c1.03.48,2.35,1.25,3.02,1.8l-.59.6c-.62-.55-1.93-1.36-2.97-1.87l.54-.53h0ZM54.6,160.18c-.2-1.06-.94-2.71-1.73-3.96l.72-.29c.82,1.22,1.58,2.84,1.79,3.91,0,0-.78.34-.78.34Z"/>
            <path class="cls-1" d="M62.12,156.9c.41-.2.8-.28,1.19-.28.61,0,1.06.47,1.06,1.22,0,.31-.04.68-.04.97,0,1.22.72,1.22,1.75,1.22.53,0,1.13-.04,1.56-.11,0,.54.04.85.04.85-.47.05-1.03.07-1.56.07-.49,0-.94-.02-1.25-.07-.86-.13-1.35-.77-1.37-1.48,0-.28.02-.82.02-1.17,0-.5-.19-.79-.61-.79-.58,0-1.46.34-2.15,1-.7.68-2,2-2.41,2.48,0,0-.13-.17-.65-.64,1.14-1.16,4.91-4.82,6.13-6.01-.88.08-3.6.24-4.97.31-.04.07-.1.12-.19.13l-.07-.96c1.68-.05,4.83-.2,6.04-.31l.18-.11.7.64c-.07.06-.16.08-.29.1-.76.71-2.23,2.06-3.12,2.92h0v.02ZM65.13,152.1c-1.28-.37-3.54-.73-5.13-.8l.18-.8c1.66.07,3.81.4,5.18.79l-.23.82h0Z"/>
            <path class="cls-1" d="M78.58,154.42s-.06,0-.1,0c-.08,0-.18-.02-.25-.07-3.56,1.04-6.79,2.62-6.78,4.22,0,1.15,1.27,1.55,3.21,1.55s3.41-.14,4.25-.28l.07.88c-1.1.14-2.89.22-4.29.22-2.37,0-4.1-.55-4.11-2.31-.01-1.28,1.27-2.41,3.15-3.38-.41-.73-.55-2.12-.55-4.83l1.32.11c-.01.16-.13.25-.37.29-.01,2.1.06,3.41.4,4.05,1.13-.53,2.42-1.01,3.74-1.44l.31,1v-.02Z"/>
            <path class="cls-1" d="M84.28,150.67c-.02.14-.13.23-.37.26-.1,1.39-.22,4.57-.22,6.34s.89,2.65,2.4,2.65,2.95-.73,4.32-2.28c.12.19.4.58.54.71-1.4,1.59-3.11,2.43-4.87,2.43-2.18,0-3.3-1.26-3.3-3.53,0-1.51.11-5.23.19-6.71l1.31.11v.02Z"/>
            <path class="cls-1" d="M92.13,151.78c.9-.04,8.29-.56,9.85-.58v.9c-.14,0-.29,0-.43,0-.7,0-1.28.12-2.05.61-1.8,1.08-3.54,3.01-3.54,4.56,0,1.68,1.18,2.67,4.15,3.06l-.4.84c-3.41-.49-4.68-1.76-4.68-3.9,0-1.69,1.67-3.74,3.86-5.12-1.27.08-4.86.36-6.4.5-.04.1-.17.18-.26.19l-.1-1.06h0Z"/>
            <path class="cls-1" d="M105.4,157.99c.89.71,2.06,1.89,2.71,2.65l-.72.66c-.6-.77-1.82-2.03-2.63-2.75l.64-.56Z"/>
            <path class="cls-1" d="M129,155.54h-5.95v5.76h-.78v-1.4c-1.43.22-2.84.41-3.78.53-.01.08-.08.14-.17.16l-.28-.84,1.15-.12v-4.08h-1.1v-.68h10.9v.68h0ZM127.43,150.67v3.41h-7.76v-3.41h7.76ZM122.27,156.39v-.85h-2.31v.85h2.31ZM122.27,157.89v-.88h-2.31v.88h2.31ZM119.95,158.52v1.02c.73-.08,1.52-.17,2.31-.26v-.75h-2.31ZM126.62,152.08v-.82h-6.18v.82h6.18ZM126.62,153.49v-.84h-6.18v.84h6.18ZM127.94,156.33l.52.2c-.04.07-.07.1-.11.14-.36,1.1-.97,2.04-1.72,2.79.7.54,1.54.94,2.47,1.18-.18.16-.38.44-.49.64-.96-.28-1.81-.73-2.53-1.32-.71.59-1.52,1.03-2.35,1.34-.1-.19-.3-.48-.46-.64.79-.25,1.57-.67,2.25-1.22-.62-.64-1.12-1.4-1.46-2.28l.47-.14h-1.14v-.67h4.4l.14-.02h.01ZM124.75,157.03c.3.74.74,1.4,1.32,1.96.55-.55,1.02-1.21,1.33-1.96h-2.65Z"/>
            <path class="cls-1" d="M142.14,154.51h-4.69c.78,2.87,2.33,5.07,4.88,6.02-.2.18-.47.52-.6.76-2.51-1.03-4.03-3.15-4.92-6.04-.55,2.38-1.86,4.73-4.95,6.06-.12-.22-.37-.5-.58-.68,3.17-1.28,4.35-3.68,4.81-6.1h-4.63v-.83h4.76c.16-1.25.14-2.47.16-3.51l1.13.06c0,.11-.11.17-.26.2,0,.95-.02,2.08-.17,3.25h5.06v.83-.02Z"/>
            <path class="cls-1" d="M147.94,150.65l.54.32s-.06.08-.11.11c-.35.92-.85,2.15-1.32,3.13,1.02.98,1.38,1.81,1.38,2.6,0,1.75-1.16,1.7-2.18,1.67,0-.22-.1-.53-.2-.72.32.02.64.02.86.02.17-.02.31-.06.44-.13.22-.12.31-.47.31-.84s-.02-1.22-1.39-2.51c.42-.91.85-2.05,1.15-2.89h-1.94v9.89h-.76v-10.63h3.08l.13-.04v.02ZM152.03,156.07c.18.65.42,1.27.71,1.82.58-.46,1.24-1.07,1.64-1.54l.74.58s-.13.07-.24.06c-.46.44-1.2,1.04-1.81,1.49.59.95,1.37,1.68,2.33,2.11-.18.16-.42.46-.54.67-1.81-.91-2.95-2.81-3.55-5.19h-1.38v3.84l2.3-.49.06.72c-1.49.35-3.07.72-4.05.94,0,.08-.07.16-.16.18l-.35-.91c.4-.07.88-.17,1.4-.28v-9.37h5.44v5.37h-2.55.01ZM153.78,151.42h-3.85v1.58h3.85v-1.58ZM149.93,153.7v1.66h3.85v-1.66h-3.85Z"/>
            <path class="cls-1" d="M166.86,150.81c-.04.06-.13.08-.24.07-.44.42-1.14,1-1.72,1.42.25.36.54.7.84,1.01.61-.47,1.37-1.14,1.82-1.63l.73.54c-.05.06-.16.07-.25.06-.46.43-1.22,1.03-1.83,1.48.7.62,1.5,1.13,2.35,1.46-.18.17-.43.47-.55.68-.62-.28-1.21-.64-1.76-1.07v.46h-1.51v1.91h2.95v.75h-2.95v2.08c0,.38.07.44.5.44h1.49c.4,0,.46-.24.5-1.57.18.14.52.28.73.34-.08,1.55-.3,1.98-1.17,1.98h-1.64c-.98,0-1.24-.25-1.24-1.19v-2.08h-2.31c-.19,1.33-.92,2.57-3.33,3.42-.1-.19-.34-.49-.52-.64,2.12-.72,2.82-1.73,3.02-2.78h-2.78v-.75h2.87v-1.91h-1.34v-.38c-.58.44-1.2.82-1.81,1.1-.11-.19-.33-.46-.5-.61.85-.36,1.73-.93,2.49-1.67-.38-.4-1.01-.94-1.54-1.33l.52-.43c.52.36,1.14.86,1.52,1.25.49-.55.91-1.15,1.22-1.8h-3.17v-.72h3.61l.14-.05c.31.18.44.24.56.29,0,.06-.07.11-.13.13-.52,1.36-1.42,2.53-2.47,3.45h5.9c-1.21-1.07-2.2-2.5-2.82-4.1l.71-.22c.22.55.48,1.08.79,1.57.55-.44,1.19-1.04,1.58-1.5l.73.54h0ZM163.91,157.19v-1.91h-2.25v1.91h2.25Z"/>
            <path class="cls-1" d="M172.84,155.89c.43-.12.88-.24,1.31-.37l.1.71c-.47.14-.95.3-1.4.44v3.63c0,.95-.47,1.01-2.08,1.01-.02-.22-.13-.55-.25-.78.26,0,.5,0,.72,0,.84,0,.84,0,.84-.25v-3.38c-.52.17-1,.31-1.37.42,0,.1-.07.16-.16.19l-.3-.94c.5-.12,1.14-.29,1.82-.48v-2.69h-1.7v-.75h1.7v-2.51l1.01.06c0,.1-.07.14-.24.17v2.28h1.24v.75h-1.24v2.47h0ZM181.45,158.9v.7h-3.39v1.7h-.77v-1.7h-3.39v-.7h3.39v-.89h-2.51v-3.72h2.51v-.86h-2.69v-.67h2.69v-1.02l1.01.06c0,.08-.08.14-.24.17v.79h2.85v.67h-2.85v.86h2.63v3.72h-2.63v.89h3.39ZM175.06,151.33v1.1h-.73v-1.79h6.76v1.79h-.74v-1.1h-5.29ZM175.52,154.9v.97h1.78v-.97h-1.78ZM175.52,157.43h1.78v-1h-1.78v1ZM179.93,154.9h-1.87v.97h1.87v-.97ZM179.93,157.43v-1h-1.87v1h1.87Z"/>
            <path class="cls-1" d="M193.36,152.92c-1.09.31-2.55.53-3.99.66.47,1.63.97,2.6,2.27,3.17l-.59.73c-.55-.42-1.12-.74-2.67-.83l-.14-.71c.59.05,1.03.12,1.33.18-.42-.5-.74-1.27-1.07-2.48-.54.05-1.27.07-1.99.07-.78,0-2.05,0-2.82-.04v-.82c.72.04,1.74.04,2.83.04.61,0,1.31,0,1.79-.06-.14-.65-.28-1.54-.42-2.46l1.28.02c0,.14-.12.23-.31.28.07.68.19,1.44.32,2.1,1.38-.12,2.94-.37,3.99-.71l.19.85h0ZM191.22,160.81c-.58.02-1.19.04-2.23.04-2.51,0-4.28-.77-4.28-2.37,0-.68.42-1.38,1.08-2.01l.65.52c-.54.43-.86,1.02-.86,1.47,0,1.19,1.54,1.57,3.44,1.57,1.04,0,1.66-.02,2.27-.06l-.06.85h-.01Z"/>
            <path class="cls-1" d="M203.39,150.59c0,.12-.08.18-.26.23.05.84.08,1.82.11,2.72.95-.16,1.86-.3,2.57-.41l.07.84c-.72.07-1.66.2-2.63.36,0,1.1,0,2.07-.13,2.66-.14.71-.66,1.12-1.34,1.12-.49,0-1.19-.17-1.85-.53.06-.18.11-.48.14-.71.67.36,1.28.47,1.57.47.72,0,.83-.71.77-2.89-1.38.23-2.82.47-3.91.66.02,1.14.05,2.23.1,2.9.14,1.82,1.04,1.93,2.77,1.93.98,0,2.28-.06,3.14-.18l.02.82c-.85.1-2.06.13-3.07.13-1.86,0-3.49-.05-3.69-2.63-.06-.67-.08-1.71-.11-2.83-.74.13-1.73.32-2.34.44l-.13-.8c.64-.1,1.63-.28,2.46-.41,0-1.04-.02-2.17-.02-3.08l1.19.11c0,.13-.11.2-.3.23,0,.73,0,1.69,0,2.59l3.89-.65c-.04-1.02-.08-2.18-.16-3.15l1.15.06h-.01Z"/>
            <path class="cls-1" d="M208.75,157.99c.89.71,2.06,1.89,2.71,2.65l-.72.66c-.6-.77-1.82-2.03-2.63-2.75l.64-.56Z"/>
            <path class="cls-1" d="M48.29,178.23v.75h-4.98v2.33c0,1.01-.58,1.02-2.79,1.02-.06-.23-.22-.56-.35-.79.61.02,1.15.04,1.54.04.7,0,.78,0,.78-.26v-2.33h-4.92v-.75h4.92v-1.04l.56.04c.61-.31,1.25-.73,1.74-1.14h-5.22v-.72h6.07l.14-.05.62.4c-.04.06-.11.1-.18.11-.71.67-1.85,1.45-2.91,1.98v.43h4.98v-.02ZM38.63,173.93v1.93h-.77v-2.66h1.87c-.23-.47-.67-1.1-1.07-1.57l.67-.32c.48.53,1,1.24,1.21,1.71l-.35.18h2.54c-.18-.54-.58-1.28-.95-1.83l.7-.26c.43.6.86,1.4,1.02,1.92l-.42.18h2.1c.47-.55,1.06-1.39,1.38-1.97.76.28.85.34.95.4-.04.07-.13.11-.25.1-.3.43-.73,1-1.15,1.47h1.96v2.66h-.79v-1.93h-8.65,0Z"/>
            <path class="cls-1" d="M50.14,180.09c.71-.46,1.96-1.4,2.93-2.29l.42.65c-.79.73-1.93,1.67-2.57,2.16,0,.13-.04.25-.13.32l-.65-.84h0ZM53.49,171.51c1.16.74,2.97,1.33,4.51,1.45l-.17.78c-.18-.02-.35-.04-.5-.04-.6,0-1.07.22-1.81.9l-.71-.3c.32-.34.83-.73,1.21-.89-.85-.19-1.96-.6-2.96-1.25l.43-.66h0ZM55.06,175.36c-.2.35-.32.64-.32.91,0,.49.35.91,1.15,1.46.97.66,1.44,1.47,1.44,2.34,0,1.1-.85,1.83-1.95,1.83-.6,0-1.27-.25-2.31-.8.1-.19.17-.44.23-.7,1.01.53,1.61.71,2,.71.76,0,1.16-.44,1.16-1.07,0-.54-.4-1.26-1.26-1.86-.88-.6-1.3-1.17-1.3-1.85,0-.38.13-.79.41-1.26l.76.28h0ZM57.77,176.78c1.38.54,2.69,1.69,3.24,3.31l-.78.43c-.5-1.46-1.68-2.65-2.9-3.12l.44-.62ZM58.34,171.71c.65.5,1.28,1.16,1.62,1.7l-.46.36c-.35-.54-.95-1.22-1.58-1.71l.42-.35h0ZM59.82,170.94c.65.52,1.25,1.1,1.6,1.68l-.46.36c-.36-.58-.95-1.19-1.57-1.68l.43-.36Z"/>
            <path class="cls-1" d="M74.29,178.23v.66h-1.27v2.17h-.82v-.55h-3.05v.82c0,.54-.16.76-.52.88-.37.12-1.01.12-2.03.12-.04-.19-.18-.5-.29-.7.44,0,.89.02,1.21.02.73,0,.8,0,.8-.31v-.83h-3.99v-.64h3.99v-.98h-5.02v-.66h5.02v-.91h-3.89v-.61h3.89v-.8h-3.53v-2.31h3.53v-.76h-4.81v-.68h4.81v-1.01l1.04.06c-.01.1-.07.16-.23.17v.78h4.91v.68h-4.91v.76h3.69v2.31h-3.69v.8h3.86v1.52h1.3ZM65.59,175.32h2.75v-1.14h-2.75v1.14ZM72.02,174.18h-2.87v1.14h2.87v-1.14ZM69.16,177.32v.91h3.05v-.91h-3.05ZM72.2,179.88v-.98h-3.05v.98h3.05Z"/>
            <path class="cls-1" d="M82.52,173.34c-.05.11-.14.19-.3.19-.43,3.73-1.68,6.98-3.67,6.98-1.01,0-1.92-1.01-1.92-2.9,0-2.88,2.24-5.29,5.4-5.29,3.47,0,4.97,2.19,4.97,4.53,0,2.85-1.66,4.23-4.56,4.91-.11-.19-.31-.52-.5-.73,2.76-.53,4.17-1.87,4.17-4.14,0-1.98-1.27-3.78-4.08-3.78-.12,0-.25,0-.36.02l.85.2h0ZM81.37,173.18c-2.42.3-3.92,2.3-3.92,4.4,0,1.28.55,2.09,1.13,2.09,1.45,0,2.49-3.2,2.79-6.49h0Z"/>
            <path class="cls-1" d="M94.56,180.96h4.89v.79h-10.89v-.79h1.69v-5.8l1.08.07c-.01.08-.08.14-.24.17v5.56h2.61v-8.11h-4.68v-.78h10v.78h-4.47v3.37h3.91v.79h-3.91v3.95h0Z"/>
            <path class="cls-1" d="M104.07,171.67c-.02.14-.13.23-.37.26-.1,1.39-.22,4.57-.22,6.34s.89,2.65,2.4,2.65,2.95-.73,4.32-2.28c.12.19.4.58.54.71-1.4,1.59-3.11,2.43-4.87,2.43-2.18,0-3.3-1.26-3.3-3.53,0-1.51.11-5.23.19-6.7l1.31.11h0Z"/>
            <path class="cls-1" d="M114.67,172.78c-.02.11-.16.18-.32.19-.14.9-.23,1.98-.23,2.99,0,.44.02.88.05,1.26.14,2.04.97,3.27,1.9,3.26.48,0,1.1-1.22,1.54-2.57.17.17.49.4.7.52-.55,1.62-1.25,2.94-2.24,2.96-1.52.02-2.58-1.82-2.75-4.13-.04-.46-.05-.96-.05-1.5,0-1.06.06-2.21.18-3.23l1.24.24h-.02ZM122.62,178.35c-.34-2.1-1.4-3.61-3.02-4.51l.53-.65c1.75.94,3.03,2.66,3.38,4.88l-.89.28h0Z"/>
            <path class="cls-1" d="M127.67,179.86c-.35.86-.89,1.68-1.85,2.15l-.62-.44c.9-.42,1.49-1.18,1.79-1.96l.68.25h0ZM136.14,174.38v.66h-10.87v-.66h3.21c-.11-.4-.32-.9-.56-1.29l.67-.2h-2.57v-.66h4.26v-1.08l1.04.06c0,.08-.08.14-.24.17v.85h4.31v.66h-2.28l.59.19c-.04.07-.12.11-.24.11-.16.34-.42.82-.65,1.2h3.33ZM134.33,175.64v3.36h-4.29c.72.26,1.5.67,1.93,1.02-.4.41-.44.48-.49.54-.47-.38-1.43-.89-2.22-1.17l.36-.38h-2.52v-3.36h7.23ZM133.52,177.03v-.8h-5.65v.8h5.65ZM133.52,178.41v-.82h-5.65v.82h5.65ZM129.16,181.21c0,.28.1.32.68.32h2.05c.48,0,.56-.16.61-1.27.18.12.48.23.7.26-.08,1.36-.32,1.66-1.24,1.66h-2.18c-1.12,0-1.42-.18-1.42-.97v-1.45l1.02.07c0,.07-.07.13-.23.16v1.22h0ZM132.05,174.37c.22-.41.5-1.03.67-1.49h-4.08c.28.44.54,1.04.64,1.44l-.18.06h2.99-.04ZM135.58,181.99c-.46-.61-1.44-1.46-2.33-2.03l.61-.42c.86.53,1.87,1.36,2.34,1.98l-.62.47Z"/>
            <path class="cls-1" d="M142.02,178.64h-2.7v1.27h-.77v-7.47h3.47v6.2ZM141.24,173.2h-1.92v4.69h1.92v-4.69ZM149.14,177.07h-2.67c.68,1.55,1.82,3.07,2.97,3.81-.19.14-.44.42-.59.64-1.08-.83-2.14-2.35-2.83-3.93v4.73h-.82v-4.5c-.9,1.63-2.24,3.06-3.67,3.83-.13-.19-.38-.49-.56-.63,1.54-.74,3-2.27,3.83-3.93h-2.51v-.78h2.91v-2.17h-2.57v-.78h2.57v-2.08l1.04.06c0,.08-.07.14-.23.17v1.85h2.72v.78h-2.72v2.17h3.12v.78-.02Z"/>
            <path class="cls-1" d="M161.3,176.29s-.05.02-.07.02c-.07,0-.13-.04-.18-.07-.91.3-2.24.79-3.24,1.22.02.28.04.59.04.94,0,.38,0,.82-.04,1.28l-.88.05c.04-.43.06-.98.06-1.45,0-.18,0-.35,0-.48-1.35.66-2.46,1.46-2.46,2.18s.83,1.03,2.48,1.03c1.16,0,2.24-.02,3.01-.12v.8c-.7.07-1.78.1-3.01.1-2.3,0-3.32-.55-3.32-1.78,0-1.05,1.39-2.07,3.19-2.97-.07-.76-.41-1.13-.89-1.13-.88,0-1.79.49-2.87,1.69-.34.37-.8.84-1.32,1.31l-.59-.59c1.2-1.06,2.33-2.06,3.02-4.43h-2.67s0-.77,0-.77c.73,0,1.58,0,2.08,0h.82c.13-.56.24-1.08.32-1.73l1.17.14c-.02.12-.12.19-.3.22-.08.48-.19.9-.3,1.33.82,0,2.57-.2,4.13-.7l.14.8c-1.5.47-3.31.64-4.5.67-.29.9-.59,1.62-.86,2.03h0c.53-.47,1.32-.78,1.93-.78.82,0,1.33.59,1.49,1.56,1.01-.46,2.28-.95,3.24-1.32l.37.91v.03Z"/>
            <path class="cls-1" d="M167.16,173.56v2.05c0,.19,0,.41,0,.61h2.19v.77h-2.25c-.04.36-.11.73-.19,1.12.58.56,1.96,2.08,2.3,2.46l-.54.66c-.38-.53-1.34-1.66-1.98-2.36-.41,1.2-1.15,2.36-2.45,3.29-.11-.17-.38-.48-.54-.59,1.82-1.28,2.43-3,2.61-4.57h-2.57v-.77h2.63c0-.22,0-.42,0-.62v-2.04h-1.07c-.28.8-.61,1.55-1,2.09-.14-.12-.42-.32-.6-.42.65-.92,1.15-2.51,1.44-4.08l.96.24c-.02.08-.11.12-.25.12-.08.43-.19.86-.31,1.29h3.49v.76h-1.88,0ZM169.88,172.21h4.44v9.61h-.82v-.85h-2.83v.98h-.79v-9.74h0ZM170.67,180.2h2.83v-7.22h-2.83v7.22Z"/>
            <path class="cls-1" d="M180.45,176.42c.79-.41,2.03-.7,2.97-.7,1.91,0,3.11,1.12,3.11,2.88,0,2.17-1.91,3.37-4.32,3.37-1.56,0-2.63-.62-2.63-1.68,0-.89.88-1.61,1.97-1.61,1.36,0,2.27,1.08,2.45,2.17.96-.36,1.66-1.13,1.66-2.24,0-1.3-.96-2.12-2.47-2.12-1.8,0-3.56.8-4.35,1.57-.36.34-.83.84-1.15,1.21l-.61-.61c1.08-1.13,4.51-4.4,6.14-5.92-.7.1-3.09.19-4.46.24-.04.08-.16.16-.25.18l-.1-1.02c1.62,0,4.71-.13,5.59-.26l.18-.08.64.78c-.06.05-.17.1-.29.11-.85.7-3.13,2.83-4.07,3.73h0ZM182.11,181.22c.36,0,.78-.05,1.09-.12-.13-.92-.82-1.7-1.7-1.7-.62,0-1.18.34-1.18.89,0,.73,1,.94,1.79.94h0Z"/>
            <path class="cls-1" d="M192.92,180.62c0,.92-.75,1.68-1.68,1.68s-1.68-.76-1.68-1.68.75-1.68,1.68-1.68,1.68.78,1.68,1.68ZM192.49,180.62c0-.7-.55-1.25-1.25-1.25s-1.24.55-1.24,1.25.55,1.23,1.24,1.23,1.25-.58,1.25-1.23Z"/>
          </g>
        </g>
        <g id="_展開">
          <path class="cls-1" d="M126.67,35.48c-.02-3.03-2.64-5.98-4.21-7.47l-.05-.05.05-.05,5.9-5.75-.3-.46c-3.57-5.48-7.25-9.6-10.09-11.3-2.3-1.38-4.37-1.73-5.82-.99-.25.13-.48.29-.68.48l-.05.04h0l-6.69,6.26c-.95,1-1.41,2.33-1.32,3.82.16,2.55,1.86,5.51,4.56,7.93l.05.05-6.38,6.03.32.57c3.21,5.97,6.36,8.9,8.44,10.31,1.37.93,3,1.44,4.57,1.44.78,0,1.51-.13,2.17-.38.5-.19.94-.45,1.31-.78l.05-.04h0l6.55-6.12c1.08-.97,1.62-2.16,1.61-3.55h0ZM122.01,15.83l.05.05c1.49,1.72,3.02,3.75,4.55,6.05l.03.05-5.28,5.15-.04-.03c-2.01-1.33-3.76-3.15-5.19-5.41l-.03-.05,5.92-5.81h-.01ZM120.2,27.97l-.08.05c-1.84,1.3-3.48,3-4.85,5.04l-.06.08-.06-.08c-1.37-2.05-3-3.74-4.85-5.04l-.08-.05.08-.05c1.85-1.3,3.48-3,4.85-5.04l.06-.08.06.08c1.37,2.05,3,3.74,4.85,5.04l.08.05ZM111.73,12.43c.06-.67.26-1.19.62-1.54.13-.12.26-.22.41-.3,1.01-.52,2.65-.17,4.52.95,1.12.67,2.4,1.76,3.79,3.24l.04.05-.05.05-5.83,5.71-.05-.05c-2.52-2.65-3.69-5.38-3.46-8.11h.01ZM104.75,19.93c-.07-1.12.25-2.06.94-2.8l4.68-4.38v.16c-.07,2.96,1.27,5.88,3.97,8.68l.04.04-.03.04c-1.44,2.28-3.2,4.11-5.23,5.44l-.04.03-.04-.03c-2.51-2.19-4.15-4.94-4.29-7.17h0ZM107.72,40.7c-1.53-1.73-3.01-3.87-4.38-6.37l-.02-.05,5.78-5.46.04.03c2.01,1.33,3.76,3.15,5.2,5.41l.03.05-6.6,6.44-.05-.05ZM118.23,43.14c-.1.39-.3.73-.61,1.01l-.05.05c-.25.22-.55.39-.9.52-.51.19-1.08.29-1.68.29-1.27,0-2.67-.42-3.83-1.21-.79-.54-1.6-1.21-2.41-2.02l-.05-.05,6.53-6.37.05.05c.91.97,3.8,4.39,2.96,7.73h0ZM124.15,38.04l-4.44,4.16v-.16c.04-2.43-1.31-5.3-3.59-7.68l-.04-.04.03-.04c1.44-2.27,3.19-4.1,5.21-5.43l.04-.03.04.04c.92.85,3.9,3.85,3.92,6.63,0,1-.38,1.84-1.18,2.55h.01Z"/>
        </g>
      </g>
    </g>
  </g>
</svg>